<?xml version="1.0" encoding="UTF-8" standalone="no"?>
<!-- Created with Inkscape (http://www.inkscape.org/) -->

<svg
   width="105.15312mm"
   height="141.11661mm"
   viewBox="0 0 105.15312 141.11661"
   version="1.1"
   id="svg8"
   inkscape:version="1.3.2 (1:1.3.2+202311252150+091e20ef0f)"
   sodipodi:docname="leashfall.svg"
   xml:space="preserve"
   inkscape:export-filename="leashfall_export.png"
   inkscape:export-xdpi="96"
   inkscape:export-ydpi="96"
   xmlns:inkscape="http://www.inkscape.org/namespaces/inkscape"
   xmlns:sodipodi="http://sodipodi.sourceforge.net/DTD/sodipodi-0.dtd"
   xmlns="http://www.w3.org/2000/svg"
   xmlns:svg="http://www.w3.org/2000/svg"
   xmlns:rdf="http://www.w3.org/1999/02/22-rdf-syntax-ns#"
   xmlns:cc="http://creativecommons.org/ns#"
   xmlns:dc="http://purl.org/dc/elements/1.1/"><defs
     id="defs2" /><sodipodi:namedview
     id="base"
     pagecolor="#ffffff"
     bordercolor="#666666"
     borderopacity="1.0"
     inkscape:pageopacity="0.0"
     inkscape:pageshadow="2"
     inkscape:zoom="0.7"
     inkscape:cx="267.14286"
     inkscape:cy="285.71429"
     inkscape:document-units="mm"
     inkscape:current-layer="layer2"
     showgrid="false"
     inkscape:window-width="1846"
     inkscape:window-height="1017"
     inkscape:window-x="74"
     inkscape:window-y="1115"
     inkscape:window-maximized="1"
     inkscape:showpageshadow="2"
     inkscape:pagecheckerboard="0"
     inkscape:deskcolor="#d1d1d1"
     inkscape:export-bgcolor="#ffffff00" /><metadata
     id="metadata5"><rdf:RDF><cc:Work
         rdf:about=""><dc:format>image/svg+xml</dc:format><dc:type
           rdf:resource="http://purl.org/dc/dcmitype/StillImage" /><dc:title /></cc:Work></rdf:RDF></metadata><g
     inkscape:groupmode="layer"
     id="layer2"
     inkscape:label="Lines"
     style="display:inline"
     transform="translate(-70.467317,-1.1511125)"><path
       style="display:inline;fill:none;stroke:#8aacf4;stroke-width:0.625;stroke-linecap:round;stroke-linejoin:round;stroke-dasharray:none;stroke-opacity:1"
       d="M 111.41504,35.415595 165.06072,2.9817674"
       id="path18"
       sodipodi:nodetypes="cc" /><path
       style="display:inline;fill:none;stroke:#8aacf4;stroke-width:0.625;stroke-linecap:round;stroke-linejoin:round;stroke-dasharray:none;stroke-opacity:1"
       d="M 112.4552,35.893893 164.27303,1.4636125"
       id="path19"
       inkscape:export-filename="leashfall_export.svg"
       inkscape:export-xdpi="96"
       inkscape:export-ydpi="96"
       sodipodi:nodetypes="cc" /><path
       style="display:inline;fill:none;stroke:#141e30;stroke-width:0.625;stroke-linecap:round;stroke-linejoin:round;stroke-dasharray:none;stroke-opacity:1"
       d="m 107.22493,108.59582 h -0.46319 c -0.33086,0 -1.91897,0.0658 -1.91897,0.0658 0,0 -0.79407,-1.45009 -1.98515,-0.98869 -1.1911,0.46138 0,0 -4.962868,0.65912 0,0 -2.580688,0.65914 -2.580688,4.08664 0,3.42749 1.191088,8.70057 2.051318,9.95294 0.86023,1.25235 2.18366,2.63654 3.507088,4.94351 1.32342,2.30697 3.7056,2.30697 2.91154,3.82298 -0.79406,1.51601 1.85281,0.9887 1.85281,0.9887 0,0 2.58069,2.04333 3.7056,2.30697 1.12493,0.26365 2.84538,0.92279 4.03646,1.18645 1.19109,0.26365 4.56585,0.85687 6.28631,0.65913 1.72045,-0.19773 6.55097,-1.12052 6.55097,-1.12052 0,0 1.12492,0 1.72049,0.0658 0.59553,0.0658 1.91897,0.26365 2.5145,0.59323 0.59554,0.32957 2.84537,1.51601 3.77178,1.51601 0.92641,0 2.05132,-0.79097 2.38218,-0.98871 0.33085,-0.19773 1.8528,-1.84557 0.99257,-2.17513 -0.86023,-0.32958 -1.38961,0.32956 -2.18366,0.26364 -0.79406,-0.0658 -1.3896,-0.92278 -1.3896,-0.92278 0,0 1.8528,0.13183 2.31599,0.0658 0.46321,-0.0658 0.59555,-0.72505 0.13236,-1.05461 -0.4632,-0.32958 -3.30859,-0.72506 -4.36734,-0.85689 -1.02217,-0.0771 -2.58437,0.45588 -4.30115,0.39549 -1.58812,0.13182 -4.83051,0.4614 -5.49223,0.26365 -0.66172,-0.19774 -6.48481,-0.26365 -6.68334,-0.13183 -0.19851,0.13183 -2.05132,-2.63654 -2.51451,-2.50471 -0.4632,0.13184 1.45577,-1.38417 2.18366,-1.9774 0.7279,-0.59321 0.86024,-1.12052 1.6543,-1.58192 0.79406,-0.4614 1.91897,-1.05461 2.51451,-1.4501 0.59555,-0.39548 3.57327,0.13183 3.57327,0.13183 0,0 3.30857,0.9887 4.49966,0.72505 1.19109,-0.26366 2.18367,-0.39549 3.17624,-0.26366 0.99258,0.13183 7.94058,1.58193 8.86699,1.84559 0.9264,0.26365 1.25727,1.31825 2.11748,1.64782 0.86024,0.32957 2.51452,-0.26365 2.51452,-0.26365 0,0 1.12491,0.85688 1.78664,1.77967 0.66172,0.92277 3.63943,3.75707 4.83052,4.48211 1.19108,0.72504 5.29372,2.30697 6.61717,2.63655 1.32342,0.32956 4.36731,1.45009 5.09519,2.04331 0.72789,0.59322 2.77921,1.58192 3.5071,2.17515 0.72788,0.59322 1.65428,0.19773 2.18364,0.19773 0.52938,0 2.38219,0.0659 3.30859,0.0659 0.9264,0 1.12493,-0.59323 1.52194,-0.59323 0.39703,0 1.8528,-2.30698 2.05132,-2.57063 0.19853,-0.26365 0.33088,-1.516 -0.0661,-1.77966 -0.39702,-0.26365 -2.51451,-0.32956 -3.17622,-0.39549 -0.66172,-0.0658 -1.25726,0.46139 -2.38217,0.46139 -1.12492,0 -3.17624,-0.19773 -3.5071,-0.32955 -0.33086,-0.13184 -0.52937,-0.52731 -1.12491,-0.59322 -0.59555,-0.0658 -1.72048,-0.32957 -2.24985,-0.52732 -0.52936,-0.19774 -6.948,-4.81168 -7.60971,-5.47081 -0.66173,-0.65915 -3.7718,-2.43881 -4.30116,-2.9661 -0.52937,-0.52731 -2.44835,-2.83429 -3.2424,-3.3616 -0.79405,-0.52731 -1.32343,-0.85687 -1.32343,-0.85687 0,0 -0.59555,-1.64784 -1.32344,-1.77968 -0.72788,-0.13182 -2.64686,-0.19773 -2.64686,-0.19773 l -6.28629,-3.75706 -0.39703,-0.32958 -0.86023,-1.18644 c 0,0 0.4632,-1.71374 0.66172,-2.83428 0.19851,-1.12053 0.0661,-2.04331 0.0661,-2.04331 0,0 -0.19851,-2.17515 0.4632,-2.76838 0.66172,-0.59322 0.66172,-2.24106 0.66172,-2.24106 0,0 1.58812,-4.28437 1.85279,-5.33898 0.2647,-1.054616 1.98516,-3.69116 1.78664,-4.152552 -0.19851,-0.461393 -0.4632,-0.263654 -0.4632,-0.263654 0,0 1.25726,-1.845581 1.12493,-2.37289 -0.13235,-0.527308 4.23496,-0.85687 6.81567,-2.834272 2.58068,-1.977414 5.16137,-5.800393 6.08778,-6.52544 0.92639,-0.725048 4.30115,-2.900193 5.8231,-3.229761 1.52193,-0.329567 1.91896,-0.659135 1.91896,-1.647837 0,-0.988703 -1.78663,-3.691154 -2.05131,-4.416202 -0.26469,-0.72505 -1.58811,-4.416204 -1.65429,-4.943512 -0.0661,-0.527308 -2.11749,-1.647838 -2.77921,-1.31827 -0.66172,0.329567 -0.66172,1.713751 -0.86023,3.032021 -0.19851,1.31827 0.72789,3.229761 0.4632,4.811684 -0.26469,1.581924 -1.91897,3.427501 -3.30859,4.152549 -1.38959,0.725048 -6.02161,2.966106 -7.4112,3.625242 -1.38961,0.659133 -3.77177,2.966105 -5.49225,3.559327 -1.72045,0.593225 -3.11005,0.790964 -4.23497,1.647843 -1.12491,0.856869 -1.3896,3.295675 -1.72046,3.691151 -0.33086,0.395477 -3.70559,5.207162 -4.56584,6.195874 -0.86022,0.988699 -2.11748,2.570619 -2.31601,3.163849 -0.19851,0.59321 -0.39703,2.24104 -0.39703,2.24104 0,0 -2.9777,2.70246 -3.97028,3.55934 -0.99258,0.85689 -6.55098,1.84559 -6.55098,1.84559 0,0 -2.84538,1.97739 -3.63943,2.43879 -0.79406,0.46139 -1.78664,0.72504 -2.84539,0.79096 -1.05874,0.0658 -5.09522,-0.59322 -6.02161,-0.59322 h -2.117486"
       id="path3725"
       inkscape:connector-curvature="0"
       sodipodi:nodetypes="cscccsscsccssccsscccccccccccccccccccccccccssscccscccsscccccccccccccccccsssccssccccssccccscsc" /><path
       style="fill:none;stroke:#141e30;stroke-width:0.625;stroke-linecap:round;stroke-linejoin:round;stroke-dasharray:none;stroke-opacity:1"
       d="m 114.57,110.2436 c 0,0 3.06797,-4.09336 4.45757,-5.21389 0.785,-0.633 1.84455,-1.47636 2.66563,-2.17357 m 0.81691,-0.72361 c 0.2142,-0.20314 0.36432,-0.3646 0.42157,-0.4644 0.26469,-0.46139 -0.26469,-1.911488 -0.72789,-2.570625 -0.46319,-0.659135 -1.65428,-2.241058 -2.18365,-2.306971 -0.52938,-0.06591 -0.19851,0.856874 -0.92641,1.252356 -0.72789,0.39548 -0.59554,-0.131828 -1.19108,0.263652 -0.59555,0.395482 -0.66171,0.790963 -0.79406,1.516016 -0.13235,0.725052 0.26468,1.977392 -0.59555,2.372882 -0.86022,0.39548 -2.71303,2.37289 -4.03646,2.9661 -1.32343,0.59323 -2.15956,1.70699 -3.70561,2.57062 l -1.54604,0.86366"
       id="path3742"
       inkscape:connector-curvature="0"
       sodipodi:nodetypes="cccccscccccccc" /><path
       style="fill:none;stroke:#141e30;stroke-width:0.625;stroke-linecap:round;stroke-linejoin:round;stroke-dasharray:none;stroke-opacity:1"
       d="m 99.374614,125.26516 c 0,0 -2.117489,-0.92279 -3.242405,-0.98871 -1.124917,-0.0658 -1.654288,-0.0658 -1.985145,-0.79095 -0.330858,-0.72506 1.058744,-6.39362 1.455773,-7.05274"
       id="path3744"
       inkscape:connector-curvature="0" /><path
       style="fill:none;stroke:#141e30;stroke-width:0.625;stroke-linecap:round;stroke-linejoin:round;stroke-dasharray:none;stroke-opacity:1"
       d="m 95.404321,114.91675 -1.124916,-0.98871 -0.794059,0.46139 -2.249832,-0.39548 c 0,0 0.463202,2.9002 0.86023,3.62524 0.397028,0.72506 0,0.9887 0,0.9887 0,0 -0.661716,0.13183 -0.926402,-0.59321 -0.264684,-0.72505 -0.330857,0.92279 -0.06617,1.71375 0.264686,0.79095 -0.992574,1.51601 -1.058745,2.96611 -0.06617,1.4501 1.323431,3.36157 2.051318,4.02072 0.727886,0.65914 2.845376,-0.65915 3.837951,-0.59323 0.992573,0.0658 2.646861,0.4614 3.043889,0.52731 0.39703,0.0658 0.926402,-0.72504 0.926402,-0.72504"
       id="path3746"
       inkscape:connector-curvature="0" /><path
       style="fill:none;stroke:#141e30;stroke-width:0.625;stroke-linecap:round;stroke-linejoin:round;stroke-dasharray:none;stroke-opacity:1"
       d="m 101.81073,112.89349 c 0,0 -1.16977,-1.86432 -1.07619,-2.61005 0.0937,-0.74572 1.0294,-1.25841 1.63767,-1.7711 0.60828,-0.51267 -0.0468,-0.6525 0.70187,-0.88554"
       id="path3748"
       inkscape:connector-curvature="0" /><path
       style="fill:none;stroke:#141e30;stroke-width:0.625;stroke-linecap:round;stroke-linejoin:round;stroke-dasharray:none;stroke-opacity:1"
       d="m 107.77649,133.65729 c -0.0936,-0.83893 -0.0233,-1.98084 1.59088,-2.51683 1.61427,-0.53599 2.97119,-0.74573 3.67304,-1.49144"
       id="path3750"
       inkscape:connector-curvature="0" /><path
       style="fill:none;stroke:#141e30;stroke-width:0.625;stroke-linecap:round;stroke-linejoin:round;stroke-dasharray:none;stroke-opacity:1"
       d="m 134.02588,89.58955 c 1.05279,-0.139823 4.65564,1.794403 5.31071,2.283785 0.65507,0.489382 1.19315,1.444846 1.42709,1.910923"
       id="path3752"
       inkscape:connector-curvature="0" /><path
       style="fill:none;stroke:#141e30;stroke-width:0.625;stroke-linecap:round;stroke-linejoin:round;stroke-dasharray:none;stroke-opacity:1"
       d="m 139.64901,96.006273 c 0,0 -1.50557,-1.103428 -2.55836,-1.569505 -1.05278,-0.466077 -2.10557,-0.978765 -2.64366,-1.048677"
       id="path3754"
       inkscape:connector-curvature="0" /><path
       style="fill:none;stroke:#141e30;stroke-width:0.625;stroke-linecap:round;stroke-linejoin:round;stroke-dasharray:none;stroke-opacity:1"
       d="m 144.21483,128.50164 c 0,0 1.6453,-0.83065 2.0754,-2.44553 0.43013,-1.61487 -0.27971,-1.86513 -0.15639,-3.15713"
       id="path3756"
       inkscape:connector-curvature="0" /><path
       style="fill:none;stroke:#141e30;stroke-width:0.625;stroke-linecap:round;stroke-linejoin:round;stroke-dasharray:none;stroke-opacity:1"
       d="m 140.76492,127.93466 c 0,0 1.91897,-0.0329 3.07698,-1.97741"
       id="path3758"
       inkscape:connector-curvature="0" /><path
       style="fill:none;stroke:#141e30;stroke-width:0.625;stroke-linecap:round;stroke-linejoin:round;stroke-dasharray:none;stroke-opacity:1"
       d="m 118.76288,125.06741 c 0,0 -0.6948,-3.69116 -0.99257,-4.64688 -0.29778,-0.95575 -0.79407,-5.80039 -0.89332,-6.75614 -0.0992,-0.95574 0.2316,-3.19681 0.99257,-4.1196"
       id="path3760"
       inkscape:connector-curvature="0" /><path
       style="fill:none;stroke:#141e30;stroke-width:0.625;stroke-linecap:round;stroke-linejoin:round;stroke-dasharray:none;stroke-opacity:1"
       d="m 123.03994,124.81049 c 0,0 -0.67071,-5.60937 -1.00157,-7.15834 -0.33085,-1.54897 -2.05132,-4.58098 -2.24983,-5.53673 -0.19851,-0.95575 -0.62863,-2.04331 0.19851,-3.06498"
       id="path3762"
       inkscape:connector-curvature="0" /><path
       style="fill:none;stroke:#141e30;stroke-width:0.625;stroke-linecap:round;stroke-linejoin:round;stroke-dasharray:none;stroke-opacity:1"
       d="m 119.82163,96.691664 -6.61716,-46.600833 c 0,0 0.9264,-1.252358 0.79406,-1.647838 -0.13235,-0.395483 -0.89332,-1.31827 -0.62864,-1.845576 0.26469,-0.527309 -0.86023,-1.153487 -0.86023,-1.153487 l -0.36393,-5.404907 c 0,0 1.35651,-0.856876 1.29033,-2.109231 -0.0661,-1.252355 -1.22416,-2.372884 -1.91897,-2.405842 -0.6948,-0.03296 -1.25726,0.06591 -1.48886,0.197739"
       id="path3764"
       inkscape:connector-curvature="0" /><path
       style="fill:none;stroke:#141e30;stroke-width:0.625;stroke-linecap:round;stroke-linejoin:round;stroke-dasharray:none;stroke-opacity:1"
       d="M 118.96139,98.075847 112.2119,49.728306 c 0,0 -3.93721,1.746708 -5.09521,2.043319 -1.15801,0.29661 -1.98515,0.626176 -1.98515,0.626176 0,0 -0.56246,-0.29661 -0.33086,-0.659133 0.2316,-0.362525 4.46658,-1.516011 5.52532,-2.043318 1.05875,-0.527309 1.15801,-0.725049 1.15801,-0.725049 0,0 -0.19852,-0.856876 -0.0992,-1.021659 0.0992,-0.164785 -0.16542,-0.560264 -0.36395,-0.823919 -0.19851,-0.263653 -0.43011,-0.988701 -0.26468,-1.2194 0.16543,-0.230697 0.66172,-0.428437 0.66172,-0.428437 l -1.02566,-5.47082 c 0,0 -1.45577,-0.164782 -1.68737,-1.318269 -0.23161,-1.153485 0.43011,-2.372885 0.56245,-2.471755"
       id="path3766"
       inkscape:connector-curvature="0" /><path
       style="fill:none;stroke:#141e30;stroke-width:0.625;stroke-linecap:round;stroke-linejoin:round;stroke-dasharray:none;stroke-opacity:1"
       d="m 135.86822,107.92991 c 0,0 -0.89331,-1.77967 -2.7792,-2.80132 -1.88589,-1.02165 -4.13571,-1.81262 -4.73127,-1.74672 -0.59554,0.0658 -1.65429,0.62619 -1.65429,0.62619 l -1.6122,0.83061"
       id="path3768"
       inkscape:connector-curvature="0" /><path
       style="fill:none;stroke:#141e30;stroke-width:0.625;stroke-linecap:round;stroke-linejoin:round;stroke-dasharray:none;stroke-opacity:1"
       d="m 135.43811,111.35742 c -0.82714,-1.1535 -2.1175,-1.77966 -2.81229,-2.24106 -0.6948,-0.4614 -4.16882,-2.57063 -4.8967,-2.99907 -0.72788,-0.42844 -1.52194,-0.92279 -1.52194,-1.05461 0,-0.13183 -1.11592,-0.22401 -1.11592,-0.22401"
       id="path3770"
       inkscape:connector-curvature="0" /><path
       style="fill:none;stroke:#141e30;stroke-width:0.625;stroke-linecap:round;stroke-linejoin:round;stroke-dasharray:none;stroke-opacity:1"
       d="m 125.09126,104.83867 c 0,0 -0.24059,-1.25904 -0.86924,-1.81932 -0.62861,-0.56026 -2.74612,-1.18643 -3.37474,-1.58192 -0.62863,-0.39547 -1.22417,-0.85686 -1.22417,-0.62618 0,0.23071 -0.13235,0.79097 -0.0992,1.02167 0.033,0.2307 1.52196,0.79096 2.64687,1.18643 1.12492,0.39548 1.81972,0.65914 2.05131,1.02166 0.23161,0.36253 0.31434,1.28532 0.31434,1.28532"
       id="path3772"
       inkscape:connector-curvature="0" /><path
       style="fill:none;stroke:#141e30;stroke-width:0.625;stroke-linecap:round;stroke-linejoin:round;stroke-dasharray:none;stroke-opacity:1"
       d="m 119.02757,105.16154 c -0.2316,-1.08757 -1.78663,-2.83427 -2.61379,-2.90019"
       id="path3793"
       inkscape:connector-curvature="0" /><path
       style="fill:none;stroke:#141e30;stroke-width:0.625;stroke-linecap:round;stroke-linejoin:round;stroke-dasharray:none;stroke-opacity:1"
       d="m 127.39827,135.18514 c -0.26469,-0.88983 0.0331,-2.57063 0.43011,-3.06498"
       id="path3795"
       inkscape:connector-curvature="0" /><path
       style="fill:none;stroke:#141e30;stroke-width:0.625;stroke-linecap:round;stroke-linejoin:round;stroke-dasharray:none;stroke-opacity:1"
       d="m 135.00849,132.07262 c -0.21056,0.48939 0.0702,1.44484 0.0702,1.44484"
       id="path3797"
       inkscape:connector-curvature="0" /><path
       style="fill:none;stroke:#141e30;stroke-width:0.625;stroke-linecap:round;stroke-linejoin:round;stroke-dasharray:none;stroke-opacity:1"
       d="m 134.04928,137.38591 c -0.42112,-0.74571 -0.30414,-1.39823 0.16377,-1.37492 0.4679,0.0232 1.12297,0.25634 1.73125,-0.46607 0.60825,-0.72243 0.49129,-1.25842 0.49129,-1.25842"
       id="path3799"
       inkscape:connector-curvature="0" /><path
       style="fill:none;stroke:#141e30;stroke-width:0.625;stroke-linecap:round;stroke-linejoin:round;stroke-dasharray:none;stroke-opacity:1"
       d="m 133.44332,125.72925 c 0,0 2.18367,-0.92279 3.2424,-2.83429 1.05875,-1.91148 0.42111,-3.23646 0,-4.54802"
       id="path3801"
       inkscape:connector-curvature="0" /><path
       style="fill:none;stroke:#141e30;stroke-width:0.625;stroke-linecap:round;stroke-linejoin:round;stroke-dasharray:none;stroke-opacity:1"
       d="m 104.84277,108.66171 c -0.96849,0.22394 -2.39118,0.52056 -2.75512,0.191"
       id="path3803"
       inkscape:connector-curvature="0" /><path
       style="fill:none;stroke:#141e30;stroke-width:0.625;stroke-linecap:round;stroke-linejoin:round;stroke-dasharray:none;stroke-opacity:1"
       d="m 122.49623,119.47067 c 1.64357,-1.82618 3.83499,-4.97635 5.52421,-6.61991 1.68922,-1.64357 3.74367,-3.78933 4.24588,-3.97195"
       id="path1" /><path
       style="fill:none;stroke:#141e30;stroke-width:0.625;stroke-linecap:round;stroke-linejoin:round;stroke-dasharray:none;stroke-opacity:1"
       d="m 118.01495,109.56481 c 0,0 0.86744,-0.89027 1.02723,-1.52943 0.15979,-0.63916 0.18262,-1.07288 0.38806,-1.16419 0.20545,-0.0913 1.34681,0.43372 1.73488,0.66199 0.38806,0.22828 0.0913,0.47938 0.0913,0.47938"
       id="path7" /><path
       style="fill:none;stroke:#141e30;stroke-width:0.625;stroke-linecap:round;stroke-linejoin:round;stroke-dasharray:none;stroke-opacity:1"
       d="m 121.59884,103.08186 c 0,0 0.70764,2.92189 0.63916,3.30996"
       id="path8" /><path
       style="fill:none;stroke:#141e30;stroke-width:0.625;stroke-linecap:round;stroke-linejoin:round;stroke-dasharray:none;stroke-opacity:1"
       d="m 120.95967,103.72102 c 0,0 0.68482,2.48818 0.45655,2.99038"
       id="path9" /><path
       style="fill:none;stroke:#141e30;stroke-width:0.625;stroke-linecap:round;stroke-linejoin:round;stroke-dasharray:none;stroke-opacity:1"
       d="m 122.85433,106.82554 c 0,0 -0.0228,-0.20545 -1.14136,-0.59351 -1.11853,-0.38807 -0.20544,0.18262 -0.66199,0.38806 -0.45654,0.20545 -1.0044,0.34241 -1.0044,0.34241"
       id="path10" /><path
       style="fill:none;stroke:#141e30;stroke-width:0.625;stroke-linecap:round;stroke-linejoin:round;stroke-dasharray:none;stroke-opacity:1"
       d="m 120.91402,106.59726 -0.29676,-0.95874 c 0,0 0.52503,-0.61634 0.52503,-0.93592 0,-0.31958 -0.22827,-0.86744 -0.22827,-0.86744"
       id="path11" /><path
       style="fill:none;stroke:#141e30;stroke-width:0.625;stroke-linecap:round;stroke-linejoin:round;stroke-dasharray:none;stroke-opacity:1"
       d="m 120.16072,106.98533 -0.36524,-1.16419 c 0,0 -0.70765,0.0456 -1.05006,-0.41089"
       id="path12" /><path
       style="fill:none;stroke:#141e30;stroke-width:0.625;stroke-linecap:round;stroke-linejoin:round;stroke-dasharray:none;stroke-opacity:1"
       d="m 131.79061,125.46094 c 0,0 3.26055,-1.17832 4.14832,-4.05147"
       id="path13" /><path
       style="fill:none;stroke:#141e30;stroke-width:0.625;stroke-linecap:round;stroke-linejoin:round;stroke-dasharray:none;stroke-opacity:1"
       d="m 122.58223,120.83191 c 0,0 3.98691,-5.13295 5.11681,-6.35969 1.12989,-1.22674 3.9869,-4.24516 5.06837,-4.95539"
       id="path14" /><path
       style="fill:none;stroke:#141e30;stroke-width:0.625;stroke-linecap:round;stroke-linejoin:round;stroke-dasharray:none;stroke-opacity:1"
       d="m 110.11583,36.758689 c 1.08147,-0.468098 1.61413,-0.451959 2.03381,0.08071 0.41967,0.532667 0.75864,1.016905 0.32283,1.614133 -0.43582,0.597231 -0.54881,0.613373 -0.54881,0.613373 0,0 -0.14528,-0.355111 -0.59723,-0.403535 -0.45196,-0.04842 -0.90392,0.516522 -0.90392,0.516522 0,0 -0.66179,-0.419674 -0.71021,-1.065328 -0.0484,-0.645653 0.40353,-1.355871 0.40353,-1.355871 z"
       id="path15" /><path
       style="fill:none;stroke:#8aacf4;stroke-width:0.625;stroke-linecap:round;stroke-linejoin:round;stroke-dasharray:none;stroke-opacity:1"
       d="M 110.35795,36.597275 71.06659,20.307247"
       id="path16" /><path
       style="fill:none;stroke:#8aacf4;stroke-width:0.625;stroke-linecap:round;stroke-linejoin:round;stroke-dasharray:none;stroke-opacity:1"
       d="M 111.59097,36.380517 70.779819,21.816234"
       id="path17"
       inkscape:export-filename="leashfall_export.png"
       inkscape:export-xdpi="96"
       inkscape:export-ydpi="96" /></g></svg>
