<?xml version="1.0" encoding="UTF-8" standalone="no"?>

<svg
   width="300"
   height="300"
   viewBox="0 0 300 300"
   version="1.1"
   xml:space="preserve"
   style="clip-rule:evenodd;fill-rule:evenodd;stroke-linejoin:round;stroke-miterlimit:2"
   id="svg2"
   xmlns="http://www.w3.org/2000/svg"
   xmlns:svg="http://www.w3.org/2000/svg"
>
  <style>
    path {
      fill: #1d2126;
    }

    @media (prefers-color-scheme: dark) {
      path { fill: #f2f6fb; }
    }
  </style>
   <defs id="defs2" />
    <path d="m 141.13689,158.93222 v 51.7 c 0,1.9 0.68,3.5 1.94,4.7 1.23,1.2 2.82,1.9 4.79,1.9 h 9.4 c 1.97,0 3.56,-0.7 4.79,-1.9 1.26,-1.2 1.94,-2.8 1.94,-4.7 v -64.5 c 0.01,-0.3 0.01,-0.5 0,-0.8 V 98.932223 c 0,-1.9 -0.68,-3.5 -1.94,-4.7 -1.23,-1.2 -2.82,-1.9 -4.79,-1.9 0,0 -9.4,0 -9.4,0 -1.97,0 -3.56,0.7 -4.79,1.9 -1.26,1.2 -1.94,2.8 -1.94,4.7 v 37.499997 l -54.639999,-8.9 V 98.932223 c 0,-1.9 -0.68,-3.5 -1.94,-4.7 -1.23,-1.2 -2.82,-1.9 -4.79,-1.9 0,0 -9.4,0 -9.4,0 -1.97,0 -3.56,0.7 -4.79,1.9 -1.26,1.2 -1.94,2.8 -1.94,4.7 v 24.899997 l -51.149999,-8.4 c -2.21,-0.3 -4.0700005,0 -5.5900006,0.8 -1.83,1 -2.91,2.5 -3.25,4.5 0,0 -1.49,8.6 -1.49,8.6 -0.37,2.2 0.19,4 1.61,5.5 1.18,1.3 2.84,2.1 5.0100001,2.5 l 54.8599995,8.9 v 64.4 c 0,1.9 0.68,3.5 1.94,4.7 1.23,1.2 2.82,1.9 4.79,1.9 h 9.4 c 1.97,0 3.56,-0.7 4.79,-1.9 1.26,-1.2 1.94,-2.8 1.94,-4.7 v -60.6 z m 35.37,-59.699997 v 45.799997 c -0.03,0.3 -0.03,0.7 0,1.1 v 64.5 c 0,1.9 0.68,3.5 1.94,4.7 1.23,1.2 2.82,1.9 4.79,1.9 h 9.4 c 1.97,0 3.56,-0.7 4.79,-1.9 1.26,-1.2 1.94,-2.8 1.94,-4.7 v -51.7 l 40.5,-6.6 -0.37,-2.3 0.37,2.3 53.17,-8.7 c 1.91,-0.3 3.34,-1.2 4.32,-2.7 0.95,-1.3 1.34,-3 0.99,-5.1 0,0 -1.48,-8.6 -1.48,-8.6 -0.33,-1.9 -1.22,-3.3 -2.57,-4.3 -1.38,-1.1 -3.03,-1.5 -4.97,-1.2 l -89.96,14.7 v -24.5 l 58.8,-9.6 c 1.67,-0.3 2.94,-1.2 3.72,-2.999997 0.54,-1.2 0.73,-2.7 0.41,-4.6 0,0 -1.48,-8.6 -1.48,-8.6 -0.3,-1.8 -0.97,-3.1 -1.88,-4.1 -1.28,-1.4 -2.79,-1.8 -4.48,-1.6 0,0 -73.61,12 -73.61,12 -1.76,0.3 -3.04,1.3 -3.8,3 -0.48,1 -0.69,2.3 -0.54,3.8 z"
   style="clip-rule:evenodd;fill-rule:nonzero;stroke-linejoin:round;stroke-miterlimit:2" />
</svg>
