<?xml version="1.0" encoding="UTF-8" standalone="no"?>
<!DOCTYPE svg PUBLIC "-//W3C//DTD SVG 1.1//EN" "http://www.w3.org/Graphics/SVG/1.1/DTD/svg11.dtd">
<svg width="100%" height="100%" viewBox="0 0 426 260" version="1.1" xmlns="http://www.w3.org/2000/svg" xmlns:xlink="http://www.w3.org/1999/xlink" xml:space="preserve" xmlns:serif="http://www.serif.com/" style="fill-rule:evenodd;clip-rule:evenodd;stroke-linejoin:round;stroke-miterlimit:2;">
    <g transform="matrix(1,0,0,1,-5998.7,-11206.4)">
        <g id="final-small" serif:id="final small" transform="matrix(0.351984,0,0,0.419101,5998.7,10905.1)">
            <rect x="0" y="719" width="1208" height="620" style="fill:none;"/>
            <g transform="matrix(2.84104,0,0,2.38606,-17817.7,-28112.8)">
                <path d="M6475.85,12220.6L6475.85,12272.3C6475.85,12274.2 6476.53,12275.8 6477.79,12277C6479.02,12278.2 6480.61,12278.9 6482.58,12278.9L6491.98,12278.9C6493.95,12278.9 6495.54,12278.2 6496.77,12277C6498.03,12275.8 6498.71,12274.2 6498.71,12272.3L6498.71,12207.8C6498.72,12207.5 6498.72,12207.3 6498.71,12207L6498.71,12160.6C6498.71,12158.7 6498.03,12157.1 6496.77,12155.9C6495.54,12154.7 6493.95,12154 6491.98,12154C6491.98,12154 6482.58,12154 6482.58,12154C6480.61,12154 6479.02,12154.7 6477.79,12155.9C6476.53,12157.1 6475.85,12158.7 6475.85,12160.6L6475.85,12198.1L6421.21,12189.2L6421.21,12160.6C6421.21,12158.7 6420.53,12157.1 6419.27,12155.9C6418.04,12154.7 6416.45,12154 6414.48,12154C6414.48,12154 6405.08,12154 6405.08,12154C6403.11,12154 6401.52,12154.7 6400.29,12155.9C6399.03,12157.1 6398.35,12158.7 6398.35,12160.6L6398.35,12185.5L6347.2,12177.1C6344.99,12176.8 6343.13,12177.1 6341.61,12177.9C6339.78,12178.9 6338.7,12180.4 6338.36,12182.4C6338.36,12182.4 6336.87,12191 6336.87,12191C6336.5,12193.2 6337.06,12195 6338.48,12196.5C6339.66,12197.8 6341.32,12198.6 6343.49,12199L6398.35,12207.9L6398.35,12272.3C6398.35,12274.2 6399.03,12275.8 6400.29,12277C6401.52,12278.2 6403.11,12278.9 6405.08,12278.9L6414.48,12278.9C6416.45,12278.9 6418.04,12278.2 6419.27,12277C6420.53,12275.8 6421.21,12274.2 6421.21,12272.3L6421.21,12211.7L6475.85,12220.6ZM6511.22,12160.9L6511.22,12206.7C6511.19,12207 6511.19,12207.4 6511.22,12207.8L6511.22,12272.3C6511.22,12274.2 6511.9,12275.8 6513.16,12277C6514.39,12278.2 6515.98,12278.9 6517.95,12278.9L6527.35,12278.9C6529.32,12278.9 6530.91,12278.2 6532.14,12277C6533.4,12275.8 6534.08,12274.2 6534.08,12272.3L6534.08,12220.6L6574.58,12214L6574.21,12211.7L6574.58,12214L6627.75,12205.3C6629.66,12205 6631.09,12204.1 6632.07,12202.6C6633.02,12201.3 6633.41,12199.6 6633.06,12197.5C6633.06,12197.5 6631.58,12188.9 6631.58,12188.9C6631.25,12187 6630.36,12185.6 6629.01,12184.6C6627.63,12183.5 6625.98,12183.1 6624.04,12183.4L6534.08,12198.1L6534.08,12173.6L6592.88,12164C6594.55,12163.7 6595.82,12162.8 6596.6,12161C6597.14,12159.8 6597.33,12158.3 6597.01,12156.4C6597.01,12156.4 6595.53,12147.8 6595.53,12147.8C6595.23,12146 6594.56,12144.7 6593.65,12143.7C6592.37,12142.3 6590.86,12141.9 6589.17,12142.1C6589.17,12142.1 6515.56,12154.1 6515.56,12154.1C6513.8,12154.4 6512.52,12155.4 6511.76,12157.1C6511.28,12158.1 6511.07,12159.4 6511.22,12160.9Z" style="fill:white;fill-rule:nonzero;"/>
            </g>
        </g>
    </g>
</svg>
