<?xml version="1.0" encoding="UTF-8" standalone="no"?>
<!DOCTYPE svg PUBLIC "-//W3C//DTD SVG 1.1//EN" "http://www.w3.org/Graphics/SVG/1.1/DTD/svg11.dtd">
<svg width="100%" height="100%" viewBox="0 0 473 615" version="1.1" xmlns="http://www.w3.org/2000/svg" xmlns:xlink="http://www.w3.org/1999/xlink" xml:space="preserve" xmlns:serif="http://www.serif.com/" style="fill-rule:evenodd;clip-rule:evenodd;stroke-linejoin:round;stroke-miterlimit:2;">
    <g transform="matrix(1,0,0,1,-5047.11,-10411.3)">
        <g id="hahn" transform="matrix(0.391093,0,0,0.990602,5047.11,9699.08)">
            <rect x="0" y="719" width="1208" height="620" style="fill:none;"/>
            <g transform="matrix(0.435326,0,0,0.171868,-6162.36,-475.939)">
                <g transform="matrix(1,0,0,1,5635.36,-218.176)">
                    <path d="M10886.5,8907.93C10886.5,8907.92 10880.4,8881.29 10864.2,8839.95C10860.8,8831.28 10857.1,8821.88 10852.9,8811.93C10829.8,8756.92 10791.5,8684.67 10723.6,8617.22C10694.1,8587.95 10659.1,8559.64 10617.9,8533.97C10566.8,8502.14 10505.8,8474.62 10433.8,8453.94C10426.6,8451.82 10419.1,8455.95 10416.9,8463.16C10414.8,8470.37 10419,8477.94 10426.2,8480.06C10495.1,8500.82 10553.1,8528.45 10602.2,8559.18C10641.5,8583.74 10674.9,8610.44 10703.6,8637.76C10770,8701.04 10811,8767.68 10833.8,8820.11C10838,8829.64 10841.5,8838.67 10844.4,8847.16C10857.6,8886.37 10859.5,8912.07 10859.5,8912.07C10860.7,8919.5 10867.6,8924.6 10875.1,8923.45C10882.5,8922.31 10887.6,8915.35 10886.5,8907.93ZM10886.5,8907.93L10886.5,8907.93L10886.5,8907.93L10886.5,8907.93Z" style="stroke:black;stroke-width:5.87px;"/>
                </g>
                <g transform="matrix(1,0,0,1,5635.36,-218.176)">
                    <path d="M10256.2,8520.58C10256.3,8519.67 10256.4,8518.72 10256.6,8517.96C10257.7,8513.59 10259.6,8508.93 10261.6,8504.75C10267.1,8493.37 10265.9,8485.47 10263.2,8480.5C10260.1,8474.97 10254.4,8470.94 10246,8470.04C10228.3,8468.15 10191.1,8483.69 10191.1,8483.69C10190.8,8483.82 10190.5,8483.96 10190.3,8484.11C10190.3,8484.11 10073.3,8548.28 9971.01,8602.01C9955.82,8609.98 9940.87,8617.57 9926.7,8624.73C9868.01,8654.37 9822.65,8676.46 9822.65,8676.46C9816.01,8679.96 9813.45,8688.2 9816.96,8694.85C9820.46,8701.49 9828.7,8704.05 9835.35,8700.54C9835.35,8700.54 9879.2,8675.59 9936.82,8643.91C9950.73,8636.26 9965.43,8628.22 9980.59,8620.19C10078.8,8568.24 10192.6,8510.53 10201.2,8506.16C10204.2,8504.89 10223.8,8496.58 10237.3,8495.42C10233.4,8503.64 10230.1,8512.93 10229.6,8520.54C10229.1,8528.34 10231.2,8534.91 10235.3,8539.68C10241.2,8546.49 10255.2,8551.98 10282.3,8541.62C10317.6,8528.12 10385.5,8486.65 10510.2,8390.78C10613.3,8310.27 10668.3,8238.42 10697.3,8178.76C10729.5,8112.57 10730.2,8060.89 10728.3,8028.02C10727.5,8013.99 10732.3,7999.78 10727,7998.36C10730.1,7992.54 10728.6,7985.17 10723.1,7981.1C10717.1,7976.6 10708.6,7977.83 10704.1,7983.85C10700.7,7988.31 10698.9,7997.37 10699.7,8011.09C10701.4,8038.11 10708,8092.28 10671.6,8166.15C10643.6,8222.88 10590.5,8290.86 10491.8,8367.22C10461.2,8391.3 10434.1,8411.91 10410.2,8429.49C10337.7,8482.78 10294.5,8508.14 10269.6,8517.35C10264.6,8519.2 10259.3,8520.15 10256.2,8520.58Z" style="stroke:black;stroke-width:5.87px;"/>
                </g>
                <g transform="matrix(1,0,0,1,5635.36,-218.176)">
                    <path d="M10493.5,8110.95C10493.5,8110.95 10547,8078.93 10608.8,8044.57C10689.7,7999.58 10784.6,7950.27 10784.6,7950.27C10785.5,7949.76 10786.4,7949.11 10787.2,7948.36C10787.2,7948.36 10803.9,7932.24 10813.3,7914.7C10819.7,7902.74 10822.2,7890.03 10818.6,7879.86C10815.7,7871.88 10809.2,7864.64 10796.3,7860.31C10781.6,7855.32 10755.6,7854.31 10712.7,7861.91C10656.1,7871.96 10627.1,7871.97 10611.7,7864.86C10600.6,7859.74 10601.1,7849.51 10599.9,7839.54C10598.5,7828.03 10596.8,7816.21 10590.8,7805.67C10578,7783.36 10557.5,7765.82 10517.4,7767.75C10483.5,7769.37 10433.2,7786.42 10357.5,7831.36C10310,7859.68 10265.4,7885.36 10226.9,7907.13C10147.9,7951.82 10094.7,7979.93 10094.7,7979.93C10088,7983.41 10085.5,7991.64 10088.9,7998.3C10092.4,8004.96 10100.6,8007.54 10107.3,8004.07C10107.3,8004.07 10161.1,7976.32 10240.8,7931.95C10279.6,7910.36 10324.6,7884.8 10372.5,7856.64C10427.5,7824.21 10467.8,7807.11 10497.8,7800.51C10536.7,7791.94 10555.1,7802.7 10565.2,7820.33C10570.7,7829.74 10570.4,7840.89 10572,7850.9C10574.8,7867.69 10580.6,7882.31 10599.9,7890.9C10617.9,7898.92 10651.9,7900.98 10717.5,7888.09C10747.2,7882.24 10767.6,7880.78 10781.1,7882.61C10789.1,7883.69 10794,7884.8 10795.4,7888.53C10797.1,7892.93 10794.6,7898.2 10791.9,7903.48C10785.6,7915.77 10775,7927.28 10771.8,7930.65C10759.1,7937.88 10674.2,7986.05 10598.8,8026.23C10536.4,8059.51 10480.5,8087.05 10480.5,8087.05C10473.9,8090.64 10471.5,8098.91 10475,8105.51C10478.6,8112.11 10486.9,8114.55 10493.5,8110.95Z" style="stroke:black;stroke-width:5.87px;"/>
                </g>
                <g transform="matrix(1,0,0,1,5635.36,-218.176)">
                    <path d="M9438.83,8332.72C9428.85,8317.75 9415.58,8299.41 9398,8278.01C9334.86,8201.17 9321.87,8105.09 9309.17,8066.05C9305.34,8054.28 9300.71,8046.55 9296.34,8042.97C9291.76,8039.21 9286.82,8037.87 9281.57,8038.54C9277.47,8039.07 9272.64,8041.03 9267.67,8045.95C9262.88,8050.69 9256.93,8059.46 9249.83,8073.3C9246.39,8079.98 9249.02,8088.2 9255.7,8091.63C9262.39,8095.07 9270.6,8092.44 9274.04,8085.76C9276.5,8080.99 9280.02,8077.07 9282.88,8073.87C9284.89,8079.99 9286.88,8087.65 9289.12,8096.51C9301.46,8145.35 9320.32,8227.64 9376.01,8296C9415.57,8344.55 9432.13,8376.58 9438.62,8388.43C9440.92,8392.61 9442.68,8395.12 9443.65,8396.18C9448.75,8401.73 9454.11,8401.48 9457.25,8400.94C9460.46,8400.39 9469.33,8397.79 9469.62,8385.55C9469.69,8382.77 9469.04,8376.25 9468.47,8365.76C9466.66,8332.98 9466.24,8258.23 9498.32,8132.64C9530.63,8005.75 9555.44,7933.59 9576.38,7907.09C9578.43,7904.5 9581.45,7902.02 9582.73,7901.02C9583.19,7901.41 9583.79,7901.94 9584.18,7902.4C9585.79,7904.24 9587.32,7906.62 9588.85,7909.46C9599.24,7928.73 9608.01,7965.02 9616.45,8015.42C9624.19,8061.28 9634.29,8089.01 9644.62,8104.75C9651.85,8115.77 9659.63,8121.9 9667.07,8125C9681.56,8131.03 9696.21,8126.71 9708.79,8116.77C9726.5,8102.78 9739.62,8077.52 9739.62,8077.52C9739.93,8076.9 9740.2,8076.27 9740.43,8075.62C9740.43,8075.62 9759.04,8021 9815.97,7919.25C9848.94,7860.34 9894.64,7785.77 9956.9,7697.02C9986.92,7654.21 10011.3,7625.91 10031,7608.41C10046.7,7594.58 10058.7,7587.74 10068.5,7586.62C10077.2,7585.62 10082.7,7590.74 10086.4,7597.77C10093.5,7611.16 10095.2,7630.63 10094.7,7645.04C10094.5,7650.75 10093.5,7657.06 10093,7659.62L10092.5,7660.14C10091.5,7661.3 10089.8,7664.05 10088.7,7668.76C10087,7675.95 10085,7691.54 10082.9,7712.92C10078.8,7754.56 10074.4,7818.86 10069.5,7885.15C10060.2,8010.61 10050.4,8143.24 10050.4,8143.24C10050,8150.74 10055.7,8157.17 10063.2,8157.59C10070.7,8158.01 10077.2,8152.26 10077.6,8144.76C10077.6,8144.76 10082.7,8011.99 10090.5,7886.58C10094.6,7820.5 10099.7,7756.5 10104,7715.04C10106,7695.3 10107.9,7680.84 10109.5,7674.03C10110.5,7673 10111.4,7671.7 10112.2,7670.07C10114,7666.29 10115.9,7657.26 10116.4,7645.84C10117.1,7628.04 10114.7,7604.07 10106.1,7587.44C10098,7571.94 10085.1,7562.19 10066,7564.19C10056.2,7565.22 10044.2,7569.81 10030,7579.85C10006.9,7596.18 9976.51,7627.98 9937.1,7682.98C9873.35,7772 9826.45,7846.84 9792.6,7906.03C9737.98,8001.55 9717.09,8056.69 9713.99,8065.22C9712.26,8068.37 9705.1,8080.92 9695.4,8090.36C9692.73,8092.95 9689.86,8095.31 9686.83,8096.98C9684.1,8098.48 9681.22,8099.55 9678.28,8098.3C9673.33,8096.2 9669.15,8090.44 9664.5,8080.83C9657.36,8066.05 9650.94,8043.53 9645.55,8010.58C9637.76,7963.35 9629.25,7927.7 9619.87,7905.49C9614.24,7892.18 9607.89,7883.08 9601.6,7877.9C9595.86,7873.16 9589.79,7870.99 9583.64,7870.81C9574.39,7870.55 9563.53,7875.24 9552.98,7888.6C9530.95,7916.46 9503.51,7991.89 9469.68,8125.36C9445.13,8222.53 9439.36,8290.38 9438.83,8332.72Z" style="stroke:black;stroke-width:5.87px;"/>
                </g>
                <g transform="matrix(1,0,0,1,5635.36,-218.176)">
                    <path d="M9250.22,8072.59C9250.22,8072.59 9225.46,8115.69 9207.39,8187.39C9198.81,8221.42 9191.63,8261.92 9189.47,8307.38C9185.32,8376.69 9199.09,8463.49 9200.61,8516.28C9200.95,8527.95 9200.67,8537.82 9199.33,8545.24C9198.95,8547.36 9197.49,8549.25 9196.77,8550.74C9195.03,8549.73 9191.84,8549.1 9188.95,8546.74C9181.29,8540.45 9171.78,8530.04 9159.88,8514.93C9125.34,8471.07 9100.86,8447.4 9082.96,8439.09C9068.31,8432.28 9056.58,8433.8 9046.5,8440.92C9037.29,8447.43 9029.25,8460.32 9022.11,8479.05C9013.88,8500.62 9006.1,8530.67 8995.75,8566.53C8981.66,8615.34 8985.09,8646.96 8994.14,8667.42C8995.7,8670.93 8997.43,8674.16 8999.29,8677.1C8985.81,8679.67 8972.35,8685.63 8961.24,8697.06C8945.28,8713.47 8933.53,8742.2 8936.68,8791.96C8940.81,8856.21 8943.99,8883.16 8955.92,8904.54C8970.88,8931.37 9001.06,8949.19 9071.12,9024.19C9115.31,9071.34 9127.18,9116.94 9141.39,9149.95C9152.67,9176.16 9165.74,9195.34 9190.5,9205.15C9207.03,9211.69 9229.4,9214 9261.46,9209.91C9296.33,9205.46 9343.74,9193.43 9409.52,9171.8C9573.75,9117.67 9631.26,9149.09 9676.14,9169.76C9701.39,9181.4 9723.32,9189.4 9753.94,9182.25C9775.43,9177.24 9801.68,9164.31 9837.11,9137.93C9843.14,9133.46 9844.41,9124.93 9839.93,9118.89C9835.46,9112.86 9826.93,9111.59 9820.89,9116.07C9789.57,9139.19 9766.69,9151.05 9747.73,9155.39C9724.06,9160.81 9707.33,9153.52 9687.86,9144.45C9639.59,9121.96 9577.74,9086.57 9400.48,9144.2C9337.05,9164.87 9291.38,9176.5 9257.77,9180.69C9232.33,9183.87 9214.55,9182.84 9201.44,9177.61C9178.38,9168.42 9171.65,9146.27 9160.86,9118.73C9147.99,9085.86 9131.92,9045.51 9092.88,9003.81C9055.35,8963.81 9029.32,8940.4 9010.95,8923.19C8996.94,8910.06 8987.68,8901.09 8981.53,8890.18C8970.84,8871.25 8969.34,8847.08 8965.32,8790.04C8962.59,8751.83 8969.24,8729.18 8981.38,8716.47C8992.27,8705.08 9007.05,8702.69 9019.74,8703.01C9023.84,8703.11 9027.76,8703.5 9031.33,8704.03C9044.18,8709.38 9054.73,8709.55 9054.73,8709.55C9061.29,8709.67 9067,8705.09 9068.29,8698.65C9069.57,8692.22 9066.06,8685.79 9059.95,8683.39C9059.95,8683.39 9051.12,8679.85 9038.26,8677.52C9028.91,8672.7 9018.4,8663.18 9014.26,8644.4C9010.6,8627.73 9011.54,8604.88 9020.25,8573.47C9030,8538.3 9037.24,8508.83 9045.06,8487.66C9049.85,8474.68 9054.21,8465.08 9060.51,8460.52C9066.14,8456.45 9072.66,8459.39 9082.19,8466.13C9097.33,8476.84 9116.53,8497.29 9142.12,8529.07C9160.44,8551.83 9174.19,8564.76 9184.01,8570.21C9193.98,8575.73 9201.81,8575.22 9207.66,8571.99C9211.79,8569.71 9215.4,8565.78 9217.86,8559.8C9220.19,8554.13 9221.64,8546.07 9222.14,8536.04C9224.53,8487.94 9206.02,8387.05 9210.53,8308.62C9213.6,8264.9 9221.3,8226.05 9230.4,8193.51C9249.16,8126.41 9273.65,8086.47 9273.65,8086.47C9277.47,8080 9275.33,8071.65 9268.87,8067.82C9262.41,8063.99 9254.05,8066.13 9250.22,8072.59ZM9250.22,8072.59C9250.22,8072.59 9250.22,8072.59 9250.22,8072.59Z" style="stroke:black;stroke-width:5.87px;"/>
                </g>
                <g transform="matrix(1,0,0,1,5635.36,-218.176)">
                    <path d="M9949.81,8617.63C9949.81,8617.63 9945.9,8639.62 9939.26,8672.25C9937.78,8679.53 9936.13,8687.33 9934.21,8695.5C9921.37,8750.04 9902.67,8822.17 9893.11,8876.44C9887.75,8906.88 9885.14,8931.92 9886.36,8945.66C9888.18,8963.66 9887.26,8992.47 9881.12,9020.9C9875.86,9045.26 9866.95,9069.53 9851.28,9085.49C9833.4,9103.71 9806.67,9109.21 9767.69,9091.64C9760.87,9088.49 9752.78,9091.48 9749.64,9098.31C9746.49,9105.13 9749.48,9113.22 9756.31,9116.36C9809.85,9141.55 9846.75,9130.79 9871.81,9105.9C9891.34,9086.51 9903.63,9057.17 9910.18,9027.22C9917.17,8995.29 9917.73,8962.85 9915.6,8942.64C9912.53,8917.37 9923.74,8849.99 9936.82,8783.94C9943.65,8749.43 9950.29,8715.11 9957.41,8687.45C9967.08,8649.85 9976.19,8624.37 9976.19,8624.37C9978.05,8617.09 9973.65,8609.67 9966.37,8607.81C9959.09,8605.95 9951.67,8610.35 9949.81,8617.63Z" style="stroke:black;stroke-width:5.87px;"/>
                </g>
                <g transform="matrix(1,0,0,1,5635.36,-218.176)">
                    <path d="M10056.8,8939.71C10056.8,8939.71 10077.7,8910.79 10093.8,8880.76C10102.4,8864.85 10109.9,8848.73 10111.6,8835.3C10113.8,8819.91 10114.8,8802.11 10118.7,8785.36C10122,8770.88 10127.5,8757.22 10138.8,8747.58C10154.7,8734.12 10181.2,8729.58 10226.5,8738.28C10271.2,8746.23 10302.7,8743.6 10325.1,8737.06C10363.2,8725.92 10375.4,8703.82 10380.3,8699.83C10394.9,8687.67 10413.3,8679.32 10431.2,8686.03C10445.2,8691.25 10458.2,8704.91 10469.6,8729.61C10472.7,8736.45 10480.8,8739.5 10487.6,8736.4C10494.5,8733.31 10497.5,8725.24 10494.4,8718.39C10479.4,8684.45 10460.3,8666.94 10441.3,8659.53C10413.7,8648.77 10384.6,8658.68 10361.7,8677.17C10357.7,8680.43 10348.1,8699.31 10316.7,8708.49C10297.4,8714.14 10270.2,8716.27 10231.5,8709.72C10174.1,8700.81 10141.4,8710.91 10122.1,8728.59C10109.9,8739.73 10102.6,8754.01 10098.4,8769.69C10092.8,8790.28 10092.4,8813.26 10090.4,8832.7C10089.1,8843.89 10083.3,8857.6 10075.7,8870.53C10059.4,8898.03 10035.9,8922.29 10035.9,8922.29C10031.1,8928.06 10031.9,8936.65 10037.7,8941.46C10043.4,8946.27 10052,8945.48 10056.8,8939.71Z" style="stroke:black;stroke-width:5.87px;"/>
                </g>
                <g transform="matrix(1,0,0,1,5635.36,-218.176)">
                    <path d="M10045.3,8983.23C10045.3,8983.23 10067.7,8969.53 10094.2,8951.44C10109.8,8940.84 10127.1,8929.2 10141.2,8916.29C10156.5,8902.24 10168.3,8886.98 10172.9,8872.04C10179.9,8848.87 10187.2,8830.57 10202.2,8819.68C10214.7,8810.56 10232.6,8807.41 10259.6,8809.82C10288.7,8812 10311.6,8806.2 10329.4,8797.33C10357.9,8783.08 10373.4,8760.84 10381.2,8750.94C10385.4,8745.53 10395.3,8740.93 10405.3,8738.08C10411.2,8736.39 10417.2,8735.34 10422.5,8735.57C10425,8735.68 10427.3,8735.77 10428.9,8736.92C10434.9,8741.41 10443.4,8740.15 10447.9,8734.12C10452.4,8728.09 10451.2,8719.56 10445.1,8715.08C10436.5,8708.55 10421.8,8706.58 10406.1,8709.32C10387,8712.69 10367.1,8722.88 10358.8,8733.06C10352.3,8741.07 10339.7,8759.39 10316.3,8770.84C10302.4,8777.64 10284.5,8781.94 10261.8,8780.17C10225.4,8777.86 10201.8,8784.49 10185.3,8797.38C10166.6,8812.07 10156.7,8835.3 10149.1,8865.47C10144.3,8884.49 10124.1,8904.18 10102.4,8920.5C10093.6,8927.04 10084.7,8933.06 10076.1,8938.06C10052.9,8951.5 10033.4,8958.77 10033.4,8958.77C10026.6,8962.07 10023.8,8970.22 10027.1,8976.97C10030.4,8983.72 10038.6,8986.53 10045.3,8983.23Z" style="stroke:black;stroke-width:5.87px;"/>
                </g>
                <g transform="matrix(1,0,0,1,5635.36,-218.176)">
                    <path d="M10442,8884.78C10433.9,8894.14 10415,8908.22 10378,8931.61C10327.9,8964.96 10286.7,8975.89 10253.3,8974.35C10222.2,8972.91 10197.7,8961.48 10181,8947.3C10158.5,8928.21 10150.2,8905.88 10150.2,8905.88C10146.8,8899.17 10138.6,8896.46 10131.9,8899.84C10125.2,8903.22 10122.5,8911.41 10125.8,8918.12C10125.8,8918.13 10140.3,8941.48 10167.9,8963.26C10188.2,8979.19 10215.2,8995.2 10251.7,8998.36C10289.1,9001.59 10336.2,8991.92 10394,8956.69C10427,8935.58 10446.7,8920.75 10457.8,8910.18C10472.8,8895.92 10475,8885.25 10474.1,8878.88C10473.2,8871.73 10468.9,8865.98 10461.9,8862.03C10460.2,8861.08 10458.3,8860.23 10456.4,8859.44L10457.4,8858.55C10464.2,8852.97 10474.3,8845.85 10489.1,8836.61C10495.5,8832.69 10497.5,8824.31 10493.6,8817.9C10489.7,8811.49 10481.3,8809.47 10474.9,8813.39C10445.1,8831.22 10431.6,8842.73 10426.6,8849.85C10422.4,8855.8 10421.8,8860.93 10422.1,8864.99C10422.6,8870.31 10425.2,8874.84 10429.8,8878.52C10432.8,8880.93 10437.3,8882.93 10442,8884.78ZM10125.8,8918.12C10125.8,8918.12 10125.8,8918.12 10125.8,8918.12L10125.8,8918.12ZM10446.2,8886.02C10446.7,8887.18 10447.2,8888.03 10447.8,8887.3C10448.3,8886.66 10447.4,8886.31 10446.2,8886.02Z" style="stroke:black;stroke-width:5.87px;"/>
                </g>
                <g transform="matrix(1,0,0,1,5635.36,-218.176)">
                    <path d="M10349.7,8769.73C10349.7,8769.73 10355.5,8777.86 10365.3,8789.16C10367.4,8791.57 10369.5,8794.29 10371.9,8797.08C10386.3,8814.54 10408.3,8835.19 10440.5,8840.78C10454.7,8843.23 10470.7,8842.63 10488.4,8837.7C10506.7,8832.6 10526.8,8822.45 10548.9,8806.08C10555,8801.72 10556.4,8793.22 10552.1,8787.1C10547.7,8780.98 10539.2,8779.55 10533.1,8783.9C10513.7,8797.14 10496.2,8804.81 10480.5,8809.05C10467.2,8812.68 10455.3,8813.54 10444.5,8812.39C10419,8809.67 10399.5,8796.69 10387.6,8783.48C10385.5,8781.17 10383.7,8778.87 10382.2,8776.55C10375.8,8766.49 10374.3,8758.27 10374.3,8758.27C10371.2,8751.46 10363.1,8748.49 10356.3,8751.65C10349.5,8754.81 10346.5,8762.91 10349.7,8769.73ZM10349.7,8769.73C10349.7,8769.73 10349.7,8769.73 10349.7,8769.73L10349.7,8769.73Z" style="stroke:black;stroke-width:5.87px;"/>
                </g>
                <g transform="matrix(1,0,0,1,5635.36,-218.176)">
                    <path d="M10424.6,8769.64C10424.6,8769.65 10427.4,8775.51 10435.7,8780.38C10438.9,8782.25 10442.7,8784.14 10447.4,8785.97C10458.3,8790.17 10474.2,8794.34 10500,8788.08C10506.1,8786.58 10512.9,8784.57 10520.2,8781.62C10526,8779.25 10532.3,8776.27 10538.8,8772.6C10553.4,8764.43 10569.7,8752.81 10588.3,8737.79C10594.3,8733.21 10595.4,8724.66 10590.8,8718.7C10586.2,8712.75 10577.7,8711.63 10571.7,8716.21C10553.7,8729.41 10537.8,8738.97 10524.2,8746.57C10518.5,8749.79 10513.2,8752.69 10508.2,8755.21C10502.3,8758.19 10497,8760.87 10492.1,8762.79C10474.8,8769.43 10462.9,8770.61 10455.5,8767.02C10449.5,8764.07 10449.4,8758.36 10449.4,8758.36C10446.3,8751.52 10438.2,8748.5 10431.4,8751.61C10424.5,8754.73 10421.5,8762.81 10424.6,8769.64ZM10424.6,8769.64L10424.6,8769.64L10424.6,8769.64Z" style="stroke:black;stroke-width:5.87px;"/>
                </g>
                <g transform="matrix(1,0,0,1,5635.36,-224.176)">
                    <path d="M10284.1,8832.78C10267.1,8832.5 10251.7,8839.82 10240.6,8851.68C10230.1,8862.85 10223.7,8878.27 10223.5,8895.27C10223.4,8912.37 10229.7,8927.99 10240.1,8939.32C10251.2,8951.43 10266.9,8958.75 10284.1,8958.48C10301,8957.86 10316.2,8950.4 10326.6,8938C10336.2,8926.68 10342.1,8911.69 10341.4,8895.27C10340.9,8879.21 10334.2,8865.18 10324.6,8854.35C10321.6,8850.9 10318.3,8847.76 10314.7,8844.92C10306.1,8838.01 10295.7,8833.98 10284.1,8832.78ZM10284.1,8860C10293.6,8859.15 10303.1,8861.57 10309.5,8868.17C10316,8874.9 10318.9,8884.89 10318.6,8895.27C10318.2,8905.3 10313.8,8914.12 10307.5,8920.57C10301.4,8926.71 10293.1,8930.15 10284.1,8929.82C10275.4,8929.68 10267.8,8925.44 10262.2,8919.24C10256.5,8913 10252.9,8904.6 10252.9,8895.27C10252.8,8885.85 10256,8877.2 10261.7,8870.84C10267.3,8864.44 10275.2,8860.15 10284.1,8860Z" style="stroke:black;stroke-width:5.87px;"/>
                </g>
                <g transform="matrix(1,0,0,1,5635.36,-218.176)">
                    <path d="M9269.52,9188.57C9269.52,9188.57 9252.17,9233.76 9236.15,9272.52C9225.24,9298.93 9214.89,9322.31 9212.81,9326.99C9210.59,9330.43 9202.28,9343.9 9200,9355.87C9197.68,9368.09 9201.06,9378.69 9212.69,9383.84C9218.45,9386.39 9227.47,9387.46 9241.04,9384.78C9258.44,9381.35 9285.29,9371.42 9325.71,9350.89C9386.94,9319.55 9477.31,9296.27 9571.6,9277.73C9723.18,9247.92 9885.34,9231.68 9957.54,9228.6C9965.04,9228.31 9970.9,9221.97 9970.6,9214.46C9970.31,9206.96 9963.97,9201.1 9956.46,9201.4C9883.41,9204.05 9718.89,9217.42 9565.77,9248.59C9468.85,9268.32 9376.67,9295.62 9314.29,9329.11C9277.18,9349.19 9252.57,9359.36 9236.45,9362.95C9229.22,9364.57 9224.4,9365.12 9221.28,9363.83C9220.25,9363.4 9220.77,9362.21 9220.86,9361.16C9221.01,9359.58 9221.35,9357.92 9221.84,9356.27C9224.55,9347 9230.65,9337.85 9230.65,9337.85C9231.01,9337.32 9231.32,9336.75 9231.57,9336.16C9231.57,9336.16 9242.56,9310.18 9255.85,9281.08C9273.27,9242.93 9294.48,9199.43 9294.48,9199.43C9297.48,9192.54 9294.32,9184.51 9287.43,9181.52C9280.54,9178.52 9272.51,9181.68 9269.52,9188.57Z" style="stroke:black;stroke-width:5.87px;"/>
                </g>
                <g transform="matrix(1,0,0,1,5635.36,-218.176)">
                    <path d="M9737.39,9168.32C9737.39,9168.33 9737.59,9187.28 9759.2,9199.49C9765.8,9203.22 9774.53,9206.43 9786.47,9208.23C9791.68,9209.02 9797.51,9209.73 9804.1,9210.02C9835.36,9211.42 9884.58,9204.39 9962.21,9176.39C9984.32,9168 10003.6,9161.15 10020.3,9155.26C10063.4,9140.11 10089.6,9132.68 10107.1,9130.19C10124.7,9127.68 10131.4,9130.55 10138.5,9133.67C10146.4,9137.15 10154.6,9140.63 10169.9,9140.61C10177.4,9140.68 10183.5,9134.64 10183.6,9127.13C10183.7,9119.61 10177.6,9113.46 10170.1,9113.39C10156.1,9113.11 10150.8,9108.42 10143.2,9105.35C10134.5,9101.85 10123.9,9099.17 10103.3,9101.73C10084.6,9104.06 10056.2,9110.86 10010.4,9127.14C9993.42,9133.17 9974.08,9140.71 9951.79,9149.61C9895.49,9173.24 9855.07,9184.52 9825.88,9187.96C9812.32,9189.57 9801.29,9189.75 9792.45,9188.28C9780.76,9186.33 9773.58,9181.81 9769.12,9177.41C9764.32,9172.67 9764.61,9167.68 9764.61,9167.68C9764.43,9160.17 9758.19,9154.22 9750.68,9154.39C9743.17,9154.57 9737.22,9160.81 9737.39,9168.32ZM9737.39,9168.32L9737.39,9168.32L9737.39,9168.32Z" style="stroke:black;stroke-width:5.87px;"/>
                </g>
                <g transform="matrix(1,0,0,1,5635.36,-218.176)">
                    <path d="M9241.72,9388.15C9241.72,9388.15 9266.93,9376.08 9317.07,9366.7C9360.88,9358.51 9423.31,9353.78 9502.56,9355.43C9527.46,9355.96 9554.03,9357.39 9582.26,9359.49C9607.44,9361.36 9633.93,9363.87 9661.73,9367.12C9732.15,9375.35 9810.94,9388.53 9897.61,9410.19C9904.89,9412.05 9912.31,9407.65 9914.17,9400.37C9916.03,9393.09 9911.63,9385.67 9904.35,9383.81C9832.71,9365.03 9766.41,9351.5 9705.53,9342.78C9657.01,9335.83 9611.96,9331.74 9570.56,9329.91C9469.24,9325.43 9389.89,9334.28 9333.67,9343.04C9322.73,9344.75 9312.67,9346.5 9303.45,9348C9256.71,9355.6 9232.28,9362.62 9232.28,9362.62C9225.23,9365.22 9221.63,9373.06 9224.23,9380.11C9226.84,9387.15 9234.67,9390.76 9241.72,9388.15L9241.72,9388.15Z" style="stroke:black;stroke-width:5.87px;"/>
                </g>
                <g transform="matrix(1,0,0,1,5635.36,-218.176)">
                    <path d="M9924.26,9178.88C9924.26,9178.89 9935.23,9192.63 9951,9210.52C9963.26,9224.43 9977.84,9241.29 9995.54,9253.77C10016.4,9268.44 10040.5,9277.37 10066.4,9273.92C10080.2,9271.86 10093.2,9267 10105.1,9259.98C10122.1,9249.92 10136.7,9235.47 10148.5,9219.77C10163.6,9199.75 10174.1,9177.56 10179.5,9159.72C10183.8,9145.48 10184.9,9133.52 10183.4,9126.37C10181.9,9119 10174.7,9114.19 10167.4,9115.64C10160,9117.09 10155.2,9124.26 10156.6,9131.63C10157.4,9135.91 10155.6,9142.83 10152.8,9151.23C10147.8,9166.35 10138.2,9184.94 10125.1,9201.88C10115.3,9214.52 10103.4,9226.15 10089.7,9234.58C10081.1,9239.92 10071.8,9244.16 10061.6,9246.08C10037.7,9250.99 10014.9,9239.98 9996.08,9225.4C9985.27,9217.03 9975.3,9207.81 9967.91,9198.51C9954,9181.01 9947.74,9165.12 9947.74,9165.12C9943.94,9158.64 9935.6,9156.46 9929.12,9160.26C9922.64,9164.06 9920.46,9172.4 9924.26,9178.88ZM9924.26,9178.88C9924.26,9178.88 9924.26,9178.88 9924.26,9178.88L9924.26,9178.88Z" style="stroke:black;stroke-width:5.87px;"/>
                </g>
                <g transform="matrix(1,0,0,1,5635.36,-218.176)">
                    <path d="M10139.3,9210.9C10139.3,9210.9 10146.6,9213.42 10157.3,9220.24C10159.5,9221.69 10161.8,9223.5 10164.2,9225.46C10178.2,9236.83 10195.1,9254.28 10212.3,9272.61C10220.9,9281.74 10229.6,9291.17 10237.4,9300.73C10249.7,9315.82 10260.4,9330.95 10264.9,9345.84C10266.9,9353.07 10274.4,9357.3 10281.7,9355.27C10288.9,9353.25 10293.1,9345.73 10291.1,9338.5C10284.9,9315.02 10268.2,9289.15 10247,9266.48C10240.3,9259.33 10233.1,9252.66 10225.8,9246.32C10206.3,9229.28 10185.4,9216.47 10172.3,9205.48C10160.7,9195.77 10154.7,9188.48 10154.7,9188.48C10148.5,9184.22 10140.1,9185.78 10135.8,9191.97C10131.5,9198.15 10133.1,9206.64 10139.3,9210.9L10139.3,9210.9Z" style="stroke:black;stroke-width:5.87px;"/>
                </g>
                <g transform="matrix(1,0,0,1,5635.36,-218.176)">
                    <path d="M9529.93,9345.98C9529.93,9345.98 9548.94,9402.21 9563.79,9477.11C9571.98,9518.38 9578.34,9565.37 9581.1,9611.26C9585.08,9677.57 9580.85,9741.76 9557.71,9782.78C9518.61,9852.37 9484.61,9920.07 9490.84,9987.2C9496.22,10045 9530.67,10103.2 9617.78,10161.3C9716.84,10226.9 9750.95,10271.9 9789.04,10292.9C9822.45,10311.3 9858.75,10313.7 9939,10295.3C9946.33,10293.6 9950.93,10286.3 9949.28,10279C9947.62,10271.7 9940.33,10267.1 9933,10268.7C9863.22,10284.2 9831.72,10284.3 9802.83,10268.1C9765.27,10247 9731.9,10202.2 9634.22,10136.7C9557.15,10085.4 9525.17,10035.4 9519.95,9984.36C9513.62,9922.45 9545.25,9860.04 9580.27,9795.22C9604.36,9750.45 9608.53,9681.27 9603.17,9609.77C9599.66,9563.06 9591.79,9515.45 9584.24,9473.25C9570.56,9396.77 9556.07,9338.35 9556.07,9338.35C9553.96,9331.14 9546.4,9327 9539.18,9329.1C9531.97,9331.21 9527.83,9338.77 9529.93,9345.98Z" style="stroke:black;stroke-width:5.87px;"/>
                </g>
                <g transform="matrix(1,0,0,1,5635.36,-218.176)">
                    <path d="M9994.68,9226.39L9994.68,9226.39L9994.68,9226.39L9994.68,9226.39C9994.66,9226.39 9941.47,9226.7 9922.97,9297.96C9914.59,9330.23 9913.76,9378.56 9930.43,9451.38C9934.8,9470.46 9940.18,9491.31 9947.1,9514.01C9978.09,9617.79 9989.36,9725.33 9991.21,9821.55C9994.12,9972.82 9973.83,10096.2 9970.43,10133.9C9968.01,10161 9969.41,10232.5 9988.88,10290.3C10002.6,10331.1 10025.8,10364.6 10060.2,10375.5C10097.3,10387.3 10150.4,10373.2 10222.8,10304.9C10324.3,10208.6 10396.9,10123.7 10445.4,10060.3C10484.2,10009.7 10507.7,9972.72 10518.4,9954.66C10521.6,9949.34 10523.7,9945.59 10524.8,9943.53C10526.8,9941.44 10530.2,9937.59 10533.7,9931.41C10543.5,9914.36 10556.7,9876.22 10538.4,9800.87C10527,9753.94 10503.3,9691.58 10457.9,9609.45C10454.3,9602.86 10446,9600.45 10439.5,9604.07C10432.9,9607.68 10430.5,9615.96 10434.1,9622.55C10477.4,9701.96 10500.3,9762.13 10511,9807.44C10526.1,9870.76 10517.1,9902.79 10508.8,9917.06C10506.7,9920.72 10504.8,9922.86 10503.8,9923.83C10503.4,9924.27 10503.1,9924.55 10502.9,9924.69C10501.4,9926.2 10500.7,9927.43 10500.4,9927.96C10500.2,9928.43 10499.9,9928.88 10499.8,9929.33L10499.1,9930.56C10497.2,9934.03 10493,9941.17 10486.5,9951.58C10464.4,9986.59 10415.5,10057.6 10332.7,10149.8C10296,10190.6 10252.8,10235.5 10202.2,10283.3C10119.8,10361.6 10071.2,10363.2 10041.3,10328.3C10025.9,10310.5 10015.9,10284.7 10009.2,10257.9C9997.12,10209.7 9995.85,10157.8 9997.57,10136.1C10000.6,10098.2 10019.4,9973.49 10014.9,9820.97C10012,9722.93 9999.51,9613.45 9966.9,9507.99C9959.14,9482.29 9953.14,9459.08 9948.92,9438.06C9939.92,9393.23 9938.45,9358.73 9941.23,9332.26C9949.21,9255.95 9995.32,9253.61 9995.32,9253.61C10002.8,9253.43 10008.8,9247.2 10008.6,9239.68C10008.4,9232.17 10002.2,9226.22 9994.68,9226.39Z" style="stroke:black;stroke-width:5.87px;"/>
                </g>
                <g transform="matrix(1,0,0,1,5635.36,-218.176)">
                    <path d="M9991.57,9237.78C9991.57,9237.79 9987.83,9265.8 9994.64,9303.11C9998.08,9321.95 10004,9343.24 10014.7,9364.45C10028.6,9393.89 10036.8,9403 10038.6,9419.82C10040.4,9436.01 10036.4,9458.96 10027.7,9512.21C10019.1,9563.78 10015.1,9630.42 10014.7,9693.52C10014.1,9771.03 10018.8,9843.17 10024.7,9875.72C10028,9893.31 10024.1,9931.31 10017.7,9975.57C10003.4,10075.5 9975.29,10205.8 9973.56,10216.8C9972.37,10224.3 9977.42,10231.2 9984.84,10232.4C9992.25,10233.6 9999.25,10228.6 10000.4,10221.2C10002.3,10210.1 10031.8,10079.9 10046.8,9979.82C10054.1,9931.33 10057.6,9889.59 10054,9870.28C10048,9838.74 10043.4,9768.73 10042.7,9693.49C10042.1,9631.73 10044,9566.44 10051.1,9515.79C10059.1,9458.99 10062.1,9434.48 10059.9,9417.3C10057.5,9398.59 10049.2,9388.17 10033.3,9355.55C10024.4,9336.05 10019.8,9316.68 10017.6,9299.56C10013.4,9266.56 10018.4,9242.22 10018.4,9242.22C10019.7,9234.8 10014.6,9227.79 10007.2,9226.57C9999.8,9225.35 9992.79,9230.37 9991.57,9237.78ZM9991.57,9237.78C9991.57,9237.78 9991.57,9237.78 9991.57,9237.78Z" style="stroke:black;stroke-width:5.87px;"/>
                </g>
                <g transform="matrix(1,0,0,1,2702.36,-101.176)">
                    <path d="M13193.7,8747.55C13193.7,8747.55 13198.2,8746.37 13203.6,8749.3C13208.9,8752.22 13213.4,8759.22 13216.7,8766.6C13218.5,8770.74 13218.7,8775.46 13217.9,8780.92C13216.9,8787.89 13213.9,8795.98 13206.7,8805.25C13201.8,8811 13202.6,8819.59 13208.3,8824.42C13214.1,8829.26 13222.7,8828.51 13227.5,8822.75C13237.4,8811.93 13243.2,8801.8 13245.8,8792.58C13248.7,8782.63 13248.4,8773.5 13245.8,8765.7C13240.8,8750.49 13227.9,8740.93 13217.8,8733.93C13215.8,8732.55 13213.9,8731.23 13212.4,8729.86C13207.3,8725.2 13204.3,8722.45 13204.3,8722.45C13197.3,8719.54 13189.4,8722.81 13186.4,8729.73C13183.5,8736.66 13186.8,8744.65 13193.7,8747.55L13193.7,8747.55Z" style="stroke:black;stroke-width:5.87px;"/>
                </g>
            </g>
        </g>
    </g>
</svg>
