<?xml version="1.0" encoding="UTF-8" standalone="no"?>
<!DOCTYPE svg PUBLIC "-//W3C//DTD SVG 1.1//EN" "http://www.w3.org/Graphics/SVG/1.1/DTD/svg11.dtd">
<svg width="100%" height="100%" viewBox="0 0 1028 378" version="1.1" xmlns="http://www.w3.org/2000/svg" xmlns:xlink="http://www.w3.org/1999/xlink" xml:space="preserve" xmlns:serif="http://www.serif.com/" style="fill-rule:evenodd;clip-rule:evenodd;stroke-linejoin:round;stroke-miterlimit:2;">
    <g transform="matrix(1,0,0,1,-5998.7,-10669.9)">
        <g id="final-big" serif:id="final big" transform="matrix(0.850628,0,0,0.609601,5998.7,10231.6)">
            <rect x="0" y="719" width="1208" height="620" style="fill:none;"/>
            <g transform="matrix(1.1756,0,0,1.64042,-7052.08,-16784.1)">
                <path d="M6513.13,10984.3C6521.43,10984.3 6528.62,10983.1 6534.71,10980.7C6541.04,10978.3 6545.93,10974.7 6549.43,10970.1C6552.99,10965.5 6554.81,10959.8 6554.81,10953.1C6554.81,10947.1 6553.4,10942.2 6550.71,10938.3C6548.06,10934.5 6544.03,10931.3 6538.53,10928.7C6533.43,10926.4 6526.91,10924.1 6518.96,10922C6512.63,10920.1 6507.49,10918.4 6503.56,10916.8C6500.04,10915.4 6497.44,10913.9 6495.84,10912C6494.41,10910.4 6493.75,10908.3 6493.75,10905.7C6493.75,10901.8 6495.25,10898.8 6498.35,10897C6501.93,10894.8 6506.6,10893.8 6512.35,10893.8C6517.98,10893.8 6522.58,10894.9 6526.12,10897.3C6529.33,10899.4 6531.23,10902 6531.69,10905.3C6531.71,10905.4 6531.74,10905.5 6531.78,10905.7C6532.36,10907.6 6533.42,10908.8 6534.76,10909.5C6535.94,10910.1 6537.06,10910.3 6538.09,10910.3L6545.96,10910.3C6547.92,10910.3 6549.35,10909.6 6550.34,10908.4C6551.3,10907.3 6551.74,10906 6551.74,10904.7C6551.74,10904.7 6551.74,10904.7 6551.74,10904.6C6551.63,10901.4 6550.7,10898.1 6548.92,10894.7C6547.2,10891.4 6544.7,10888.4 6541.38,10885.5C6538.12,10882.7 6534.04,10880.4 6529.14,10878.7C6524.33,10877.1 6518.74,10876.2 6512.35,10876.2C6504.38,10876.2 6497.59,10877.5 6491.94,10880C6486.11,10882.6 6481.66,10886.1 6478.55,10890.5C6475.39,10895.1 6473.79,10900.2 6473.79,10905.9C6473.79,10911.9 6475.12,10916.9 6477.65,10920.8C6480.17,10924.7 6484,10927.9 6489.2,10930.6C6494.03,10933 6500.08,10935.2 6507.35,10937.2C6514.12,10939.2 6519.64,10940.9 6523.9,10942.5C6527.78,10944 6530.68,10945.6 6532.54,10947.4C6534.11,10949 6534.84,10951 6534.84,10953.5C6534.84,10957.4 6533.24,10960.6 6530.04,10962.9C6526.44,10965.5 6520.79,10966.7 6513.13,10966.7C6508.11,10966.7 6503.99,10966.1 6500.77,10964.7C6497.73,10963.4 6495.37,10961.9 6493.76,10959.9C6492.22,10958.1 6491.21,10956.2 6490.79,10954.3C6490.77,10954.2 6490.74,10954.1 6490.71,10954C6490.3,10952.8 6489.62,10951.8 6488.7,10950.9C6487.67,10950 6486.24,10949.4 6484.35,10949.4L6476.76,10949.4C6475.12,10949.4 6473.76,10950 6472.66,10951.1C6471.5,10952.2 6470.95,10953.5 6470.95,10955C6470.95,10955.1 6470.95,10955.1 6470.95,10955.1C6471.17,10960.2 6472.95,10965 6476.34,10969.5C6479.63,10973.9 6484.39,10977.5 6490.67,10980.2C6496.76,10982.9 6504.25,10984.3 6513.13,10984.3ZM6133.13,10983.1L6140.51,10983.1C6142.4,10983.1 6143.85,10982.5 6144.94,10981.4C6146.08,10980.3 6146.7,10978.9 6146.7,10977.1C6146.7,10977.1 6146.7,10941.3 6146.7,10941.3C6146.7,10941.3 6189.94,10941.3 6189.94,10941.3C6191.83,10941.3 6193.28,10940.7 6194.38,10939.6C6195.52,10938.5 6196.13,10937.1 6196.13,10935.3L6196.13,10929.6C6196.13,10927.7 6195.49,10926.2 6194.38,10925.2C6193.28,10924.1 6191.83,10923.5 6189.94,10923.5C6189.94,10923.5 6146.7,10923.5 6146.7,10923.5C6146.7,10923.5 6146.7,10895.7 6146.7,10895.7C6146.7,10895.7 6192.87,10895.7 6192.87,10895.7C6194.76,10895.7 6196.21,10895.1 6197.31,10894.1C6198.44,10893 6199.06,10891.5 6199.06,10889.8C6199.06,10889.8 6199.06,10884 6199.06,10884C6199.06,10882.1 6198.42,10880.6 6197.31,10879.5C6196.21,10878.5 6194.76,10877.9 6192.87,10877.9L6133.13,10877.9C6131.35,10877.9 6129.93,10878.5 6128.82,10879.5C6127.7,10880.6 6127.07,10882.1 6127.07,10884C6127.07,10884 6127.07,10977.1 6127.07,10977.1C6127.07,10978.9 6127.68,10980.3 6128.82,10981.4C6129.93,10982.5 6131.35,10983.1 6133.13,10983.1ZM6741.5,10983.1L6801.24,10983.1C6803.13,10983.1 6804.58,10982.5 6805.68,10981.4C6806.81,10980.3 6807.43,10978.9 6807.43,10977.1L6807.43,10971.4C6807.43,10969.5 6806.79,10968 6805.68,10966.9C6804.58,10965.9 6803.13,10965.3 6801.24,10965.3C6801.24,10965.3 6755.32,10965.3 6755.32,10965.3C6755.32,10965.3 6755.32,10883.9 6755.32,10883.9C6755.32,10882.1 6754.7,10880.7 6753.56,10879.5C6752.45,10878.5 6751.03,10877.9 6749.25,10877.9L6741.5,10877.9C6739.73,10877.9 6738.3,10878.5 6737.19,10879.5C6736.05,10880.7 6735.44,10882.1 6735.44,10883.9L6735.44,10977.1C6735.44,10978.9 6736.05,10980.3 6737.19,10981.4C6738.3,10982.5 6739.73,10983.1 6741.5,10983.1ZM6310.25,10983.1L6371.88,10983.1C6373.77,10983.1 6375.22,10982.5 6376.32,10981.4C6377.45,10980.3 6378.07,10978.9 6378.07,10977.1C6378.07,10977.1 6378.07,10971.6 6378.07,10971.6C6378.07,10969.7 6377.43,10968.3 6376.32,10967.2C6375.22,10966.1 6373.77,10965.5 6371.88,10965.5L6323.68,10965.5C6323.68,10965.5 6323.68,10938.6 6323.68,10938.6C6323.68,10938.6 6367.49,10938.6 6367.49,10938.6C6369.38,10938.6 6370.83,10937.9 6371.92,10936.9C6373.06,10935.8 6373.68,10934.3 6373.68,10932.6L6373.68,10927.4C6373.68,10925.5 6373.04,10924 6371.92,10922.9C6370.83,10921.9 6369.38,10921.3 6367.49,10921.3C6367.49,10921.3 6323.68,10921.3 6323.68,10921.3C6323.68,10921.3 6323.68,10895.5 6323.68,10895.5C6323.68,10895.5 6370.71,10895.5 6370.71,10895.5C6372.6,10895.5 6374.05,10894.8 6375.14,10893.8C6376.28,10892.7 6376.9,10891.2 6376.9,10889.5L6376.9,10884C6376.9,10882.1 6376.26,10880.6 6375.14,10879.5C6374.05,10878.5 6372.6,10877.9 6370.71,10877.9L6310.25,10877.9C6308.47,10877.9 6307.05,10878.5 6305.93,10879.5C6304.82,10880.6 6304.18,10882.1 6304.18,10884L6304.18,10977.1C6304.18,10978.9 6304.8,10980.3 6305.93,10981.4C6307.05,10982.5 6308.47,10983.1 6310.25,10983.1ZM6395.48,10983.1L6457.11,10983.1C6459,10983.1 6460.45,10982.5 6461.55,10981.4C6462.68,10980.3 6463.3,10978.9 6463.3,10977.1L6463.3,10971.6C6463.3,10969.7 6462.66,10968.3 6461.55,10967.2C6460.45,10966.1 6459,10965.5 6457.11,10965.5L6408.91,10965.5C6408.91,10965.5 6408.91,10938.6 6408.91,10938.6C6408.91,10938.6 6452.72,10938.6 6452.72,10938.6C6454.61,10938.6 6456.06,10937.9 6457.15,10936.9C6458.29,10935.8 6458.91,10934.3 6458.91,10932.6C6458.91,10932.6 6458.91,10927.4 6458.91,10927.4C6458.91,10925.5 6458.27,10924 6457.15,10922.9C6456.06,10921.9 6454.61,10921.3 6452.72,10921.3C6452.72,10921.3 6408.91,10921.3 6408.91,10921.3C6408.91,10921.3 6408.91,10895.5 6408.91,10895.5C6408.91,10895.5 6455.94,10895.5 6455.94,10895.5C6457.83,10895.5 6459.28,10894.8 6460.38,10893.8C6461.51,10892.7 6462.13,10891.2 6462.13,10889.5L6462.13,10884C6462.13,10882.1 6461.49,10880.6 6460.38,10879.5C6459.28,10878.5 6457.83,10877.9 6455.94,10877.9L6395.48,10877.9C6393.7,10877.9 6392.28,10878.5 6391.16,10879.5C6390.05,10880.6 6389.41,10882.1 6389.41,10884L6389.41,10977.1C6389.41,10978.9 6390.03,10980.3 6391.16,10981.4C6392.28,10982.5 6393.7,10983.1 6395.48,10983.1ZM6821.97,10983.1L6883.61,10983.1C6884.57,10983.1 6885.51,10982.8 6886.35,10982.2C6887.05,10981.7 6887.68,10981 6888.14,10980.6C6888.86,10979.9 6889.19,10979.6 6889.42,10979.1C6889.62,10978.6 6889.79,10978.1 6889.79,10977.1L6889.79,10971.6C6889.79,10969.7 6889.16,10968.3 6888.04,10967.2C6886.95,10966.1 6885.49,10965.5 6883.61,10965.5L6835.4,10965.5C6835.4,10965.5 6835.4,10938.6 6835.4,10938.6C6835.4,10938.6 6879.22,10938.6 6879.22,10938.6C6881.1,10938.6 6882.56,10937.9 6883.65,10936.9C6884.79,10935.8 6885.4,10934.3 6885.4,10932.6C6885.4,10932.6 6885.4,10927.4 6885.4,10927.4C6885.4,10925.5 6884.77,10924 6883.65,10922.9C6882.56,10921.9 6881.1,10921.3 6879.22,10921.3C6879.22,10921.3 6835.4,10921.3 6835.4,10921.3C6835.4,10921.3 6835.4,10895.5 6835.4,10895.5C6835.4,10895.5 6882.44,10895.5 6882.44,10895.5C6884.32,10895.5 6885.78,10894.8 6886.87,10893.8C6888.01,10892.7 6888.62,10891.2 6888.62,10889.5L6888.62,10884C6888.62,10882.1 6887.99,10880.6 6886.87,10879.5C6885.78,10878.5 6884.32,10877.9 6882.44,10877.9L6821.97,10877.9C6820.19,10877.9 6818.77,10878.5 6817.66,10879.5C6816.54,10880.6 6815.91,10882.1 6815.91,10884C6815.91,10884 6815.91,10977.1 6815.91,10977.1C6815.91,10978.9 6816.52,10980.3 6817.66,10981.4C6818.77,10982.5 6820.19,10983.1 6821.97,10983.1ZM6216.57,10983.1L6224.08,10983.1C6225.97,10983.1 6227.43,10982.5 6228.52,10981.4C6229.65,10980.3 6230.27,10978.9 6230.27,10977.1L6230.27,10943C6230.27,10943 6251.64,10943 6251.64,10943L6272.13,10977.9C6272.76,10979 6273.57,10980 6274.55,10981C6275.8,10982.3 6277.64,10983.1 6280.16,10983.1C6280.16,10983.1 6287.21,10983.1 6287.21,10983.1C6288.73,10983.1 6290.06,10982.6 6291.19,10981.5C6292.35,10980.3 6292.9,10979 6292.9,10977.5C6292.9,10976.6 6292.69,10975.7 6292.16,10974.7C6292.14,10974.6 6292.11,10974.6 6292.08,10974.5L6271.28,10939.6C6276.8,10937.5 6281.25,10934.3 6284.66,10930.1C6288.75,10925.1 6290.86,10918.6 6290.86,10910.5C6290.86,10899.6 6287.23,10891.5 6280.16,10886C6273.31,10880.6 6264.07,10877.9 6252.4,10877.9L6216.57,10877.9C6214.79,10877.9 6213.36,10878.5 6212.25,10879.5C6211.14,10880.6 6210.5,10882.1 6210.5,10884L6210.5,10977.1C6210.5,10978.9 6211.11,10980.3 6212.25,10981.4C6213.36,10982.5 6214.79,10983.1 6216.57,10983.1ZM6589.91,10983.1L6597.54,10983.1C6599.42,10983.1 6600.88,10982.5 6601.97,10981.4C6603.11,10980.3 6603.72,10978.9 6603.72,10977.1L6603.72,10896C6603.72,10896 6629,10896 6629,10896C6630.89,10896 6632.34,10895.4 6633.44,10894.3C6634.57,10893.2 6635.19,10891.8 6635.19,10890L6635.19,10884C6635.19,10882.1 6634.55,10880.6 6633.44,10879.5C6632.34,10878.5 6630.89,10877.9 6629,10877.9L6558.45,10877.9C6556.67,10877.9 6555.25,10878.5 6554.13,10879.5C6553.02,10880.6 6552.38,10882.1 6552.38,10884C6552.38,10884 6552.38,10890 6552.38,10890C6552.38,10891.8 6553,10893.2 6554.13,10894.3C6555.25,10895.4 6556.67,10896 6558.45,10896C6558.45,10896 6583.84,10896 6583.84,10896C6583.84,10896 6583.84,10977.1 6583.84,10977.1C6583.84,10978.9 6584.46,10980.3 6585.6,10981.4C6586.71,10982.5 6588.13,10983.1 6589.91,10983.1ZM6681.39,10983.1L6689.03,10983.1C6690.91,10983.1 6692.37,10982.5 6693.46,10981.4C6694.6,10980.3 6695.21,10978.9 6695.21,10977.1L6695.21,10944.2C6695.21,10944.2 6729.99,10886.7 6729.99,10886.7C6730.3,10886.2 6730.52,10885.7 6730.68,10885.2C6730.85,10884.7 6730.94,10884.1 6730.94,10883.5C6730.94,10882 6730.39,10880.6 6729.23,10879.5C6728.1,10878.4 6726.77,10877.9 6725.25,10877.9L6717.71,10877.9C6716.15,10877.9 6714.86,10878.3 6713.81,10879.1C6712.91,10879.7 6712.14,10880.5 6711.51,10881.6C6711.52,10881.6 6685.27,10924.1 6685.27,10924.1C6685.27,10924.1 6659.08,10881.7 6659.08,10881.7C6658.52,10880.6 6657.74,10879.7 6656.72,10879C6655.64,10878.3 6654.35,10877.9 6652.83,10877.9L6645.29,10877.9C6643.77,10877.9 6642.44,10878.4 6641.31,10879.5C6640.15,10880.6 6639.6,10882 6639.6,10883.5C6639.6,10884.3 6639.76,10884.9 6640.04,10885.6C6640.14,10885.8 6640.22,10886 6640.3,10886.2C6640.36,10886.3 6640.43,10886.5 6640.52,10886.6L6675.33,10944.2C6675.33,10944.2 6675.33,10977.1 6675.33,10977.1C6675.33,10978.9 6675.94,10980.3 6677.08,10981.4C6678.19,10982.5 6679.61,10983.1 6681.39,10983.1ZM6230.27,10925.5L6230.27,10895.2C6230.27,10895.2 6251.81,10895.2 6251.81,10895.2C6258.35,10895.2 6263.25,10896.4 6266.42,10899.1C6269.42,10901.7 6270.82,10905.5 6270.82,10910.4C6270.82,10915.3 6269.42,10919.1 6266.41,10921.6C6263.22,10924.3 6258.33,10925.5 6251.81,10925.5L6230.27,10925.5Z" style="fill:white;fill-rule:nonzero;"/>
            </g>
            <g transform="matrix(1.1756,0,0,1.64042,-7052.08,-16784.1)">
                <path d="M6258.66,10862L6268.07,10862C6270.04,10862 6271.62,10861.4 6272.86,10860.2C6274.12,10858.9 6274.79,10857.4 6274.79,10855.4C6274.79,10855.4 6274.79,10743.8 6274.79,10743.8C6274.79,10741.8 6274.12,10740.2 6272.86,10739C6271.62,10737.8 6270.04,10737.1 6268.07,10737.1C6268.07,10737.1 6258.66,10737.1 6258.66,10737.1C6256.69,10737.1 6255.11,10737.8 6253.87,10739C6252.61,10740.2 6251.94,10741.8 6251.94,10743.8L6251.94,10855.4C6251.94,10857.4 6252.61,10858.9 6253.87,10860.2C6255.11,10861.4 6256.69,10862 6258.66,10862Z" style="fill:white;fill-rule:nonzero;"/>
            </g>
            <g transform="matrix(1.1756,0,0,1.64042,-7052.08,-16784.1)">
                <path d="M6129.38,10768.6L6078.23,10760.2C6076.02,10759.9 6074.16,10760.2 6072.64,10761C6070.81,10762 6069.73,10763.5 6069.39,10765.5C6069.39,10765.5 6067.9,10774.1 6067.9,10774.1C6067.53,10776.3 6068.09,10778.1 6069.51,10779.6C6070.69,10780.9 6072.35,10781.7 6074.53,10782.1L6129.38,10791L6129.38,10855.4C6129.38,10857.4 6130.06,10858.9 6131.32,10860.2C6132.55,10861.4 6134.14,10862 6136.11,10862L6145.51,10862C6147.49,10862 6149.07,10861.4 6150.3,10860.2C6151.56,10858.9 6152.24,10857.4 6152.24,10855.4L6152.24,10794.8L6206.88,10803.7L6206.88,10855.4C6206.88,10857.4 6207.56,10858.9 6208.82,10860.2C6210.05,10861.4 6211.64,10862 6213.61,10862L6223.01,10862C6224.98,10862 6226.57,10861.4 6227.8,10860.2C6229.06,10858.9 6229.74,10857.4 6229.74,10855.4L6229.74,10790.9C6229.75,10790.6 6229.75,10790.4 6229.74,10790.1L6229.74,10743.8C6229.74,10741.8 6229.06,10740.2 6227.8,10739C6226.57,10737.8 6224.98,10737.1 6223.01,10737.1C6223.01,10737.1 6213.61,10737.1 6213.61,10737.1C6211.64,10737.1 6210.05,10737.8 6208.82,10739C6207.56,10740.2 6206.88,10741.8 6206.88,10743.8L6206.88,10781.2L6152.24,10772.3L6152.24,10743.8C6152.24,10741.8 6151.56,10740.2 6150.3,10739C6149.07,10737.8 6147.49,10737.1 6145.51,10737.1C6145.51,10737.1 6136.11,10737.1 6136.11,10737.1C6134.14,10737.1 6132.55,10737.8 6131.32,10739C6130.06,10740.2 6129.38,10741.8 6129.38,10743.8L6129.38,10768.6Z" style="fill:white;fill-rule:nonzero;"/>
            </g>
            <g transform="matrix(1.1756,0,0,1.64042,-7052.08,-16783.8)">
                <path d="M6619.05,10829.8L6618.91,10829.8C6618.67,10829.8 6618.42,10829.8 6618.17,10829.9C6618.17,10829.9 6555.97,10840 6555.97,10840C6554.31,10840.3 6558.03,10862.1 6559.68,10861.9L6621.88,10851.7C6623.45,10851.5 6624.7,10850.5 6625.39,10848.6C6625.8,10847.5 6625.92,10846 6625.61,10844.2C6625.61,10844.2 6624.13,10835.6 6624.13,10835.6C6623.84,10833.9 6623.26,10832.6 6622.49,10831.7C6621.48,10830.4 6620.3,10829.8 6619.05,10829.8Z" style="fill:white;fill-rule:nonzero;"/>
            </g>
            <g transform="matrix(1.1756,0,0,1.64042,-7052.08,-16784.1)">
                <path d="M6646.57,10862L6655.97,10862C6657.95,10862 6659.53,10861.4 6660.77,10860.2C6662.03,10858.9 6662.7,10857.4 6662.7,10855.4C6662.7,10855.4 6662.7,10743.8 6662.7,10743.8C6662.7,10741.8 6662.03,10740.2 6660.77,10739C6659.53,10737.8 6657.95,10737.1 6655.97,10737.1C6655.97,10737.1 6646.57,10737.1 6646.57,10737.1C6644.6,10737.1 6643.02,10737.8 6641.78,10739C6640.52,10740.2 6639.85,10741.8 6639.85,10743.8C6639.85,10743.8 6639.85,10855.4 6639.85,10855.4C6639.85,10857.4 6640.52,10858.9 6641.78,10860.2C6643.02,10861.4 6644.6,10862 6646.57,10862Z" style="fill:white;fill-rule:nonzero;"/>
            </g>
            <g transform="matrix(1.1756,0,0,1.64042,-7052.08,-16784.1)">
                <path d="M6690.54,10862L6699.05,10862C6701.14,10862 6702.77,10861.3 6703.98,10860.2C6705.24,10858.9 6705.91,10857.4 6705.91,10855.4C6705.91,10855.4 6705.91,10779.7 6705.91,10779.7C6705.91,10779.7 6758.89,10858.4 6758.89,10858.4C6758.97,10858.5 6759.07,10858.7 6759.17,10858.8C6759.42,10859 6759.86,10859.5 6760.48,10860.2C6761.53,10861.3 6763.15,10862 6765.47,10862C6765.47,10862 6773.8,10862 6773.8,10862C6775.79,10862 6777.4,10861.3 6778.65,10860C6779.88,10858.8 6780.52,10857.2 6780.52,10855.3L6780.52,10743.9C6780.52,10741.8 6779.82,10740.2 6778.59,10739C6777.37,10737.8 6775.75,10737.1 6773.65,10737.1C6773.65,10737.1 6765.15,10737.1 6765.15,10737.1C6763.17,10737.1 6761.59,10737.8 6760.35,10739C6759.11,10740.2 6758.42,10741.8 6758.42,10743.9C6758.42,10743.9 6758.42,10820.4 6758.42,10820.4C6758.42,10820.4 6705.33,10740.8 6705.33,10740.8C6705.09,10740.4 6704.56,10739.7 6703.7,10738.9C6702.6,10737.8 6700.98,10737.1 6698.72,10737.1C6698.72,10737.1 6690.54,10737.1 6690.54,10737.1C6688.57,10737.1 6686.99,10737.8 6685.75,10739C6684.51,10740.2 6683.82,10741.8 6683.82,10743.9L6683.82,10855.4C6683.82,10857.4 6684.49,10858.9 6685.75,10860.2C6686.99,10861.4 6688.57,10862 6690.54,10862Z" style="fill:white;fill-rule:nonzero;"/>
            </g>
            <g transform="matrix(1.1756,0,0,1.64042,-7052.08,-16784.1)">
                <path d="M6825.9,10818.3L6888,10808.2L6887.61,10805.8L6888,10808.2L6956.21,10797.1C6958.34,10796.7 6959.94,10795.9 6961.09,10794.6C6962.43,10793.1 6962.95,10791.3 6962.59,10789.2C6962.59,10789.2 6961.1,10780.5 6961.1,10780.5C6960.76,10778.5 6959.72,10777 6957.97,10776.1C6956.48,10775.2 6954.66,10774.9 6952.5,10775.2L6825.9,10795.9L6825.9,10757.1C6825.9,10757.1 6882.72,10757.1 6882.72,10757.1C6884.82,10757.1 6886.44,10756.4 6887.66,10755.3C6888.92,10754 6889.59,10752.5 6889.59,10750.5L6889.59,10743.9C6889.59,10741.8 6888.9,10740.2 6887.66,10739C6886.44,10737.8 6884.82,10737.1 6882.72,10737.1C6882.72,10737.1 6810.36,10737.1 6810.36,10737.1C6808.39,10737.1 6806.81,10737.8 6805.57,10739C6804.33,10740.2 6803.64,10741.8 6803.64,10743.9L6803.64,10855.4C6803.64,10857.4 6804.31,10858.9 6805.57,10860.2C6806.81,10861.4 6808.39,10862 6810.36,10862L6884.12,10862C6886.22,10862 6887.84,10861.3 6889.06,10860.2C6890.32,10858.9 6890.99,10857.4 6890.99,10855.4L6890.99,10848.8C6890.99,10846.7 6890.3,10845.1 6889.06,10843.9C6887.84,10842.7 6886.22,10842 6884.12,10842C6884.12,10842 6825.9,10842 6825.9,10842L6825.9,10818.3Z" style="fill:white;fill-rule:nonzero;"/>
            </g>
            <g transform="matrix(1.1756,0,0,1.64042,-7052.08,-16784.1)">
                <path d="M6391.92,10835.4L6412.18,10838.7L6412.18,10855.4C6412.18,10857.4 6412.85,10858.9 6414.11,10860.2C6415.35,10861.4 6416.93,10862 6418.9,10862L6428.31,10862C6430.28,10862 6431.86,10861.4 6433.1,10860.2C6434.36,10858.9 6435.03,10857.4 6435.03,10855.4L6435.03,10842.4L6487.05,10850.9C6487.07,10850.9 6487.09,10850.9 6487.11,10850.9L6489.47,10851.2L6489.47,10855.4C6489.47,10857.4 6490.14,10858.9 6491.4,10860.2C6492.64,10861.4 6494.22,10862 6496.19,10862L6505.59,10862C6507.57,10862 6509.15,10861.4 6510.39,10860.2C6511.65,10858.9 6512.32,10857.4 6512.32,10855.4C6512.32,10855.4 6512.32,10743.8 6512.32,10743.8C6512.32,10741.8 6511.65,10740.2 6510.39,10739C6509.15,10737.8 6507.57,10737.1 6505.59,10737.1C6505.59,10737.1 6496.19,10737.1 6496.19,10737.1C6494.22,10737.1 6492.64,10737.8 6491.4,10739C6490.14,10740.2 6489.47,10741.8 6489.47,10743.8L6489.47,10828.8C6488.96,10828.7 6488.67,10828.7 6488.67,10828.7C6488.66,10828.7 6488.64,10828.7 6488.63,10828.7L6435.03,10819.9L6435.03,10743.8C6435.03,10741.8 6434.36,10740.2 6433.1,10739C6431.86,10737.8 6430.28,10737.1 6428.31,10737.1C6428.31,10737.1 6418.9,10737.1 6418.9,10737.1C6416.93,10737.1 6415.35,10737.8 6414.11,10739C6412.85,10740.2 6412.18,10741.8 6412.18,10743.8L6412.18,10816.2L6339.5,10804.4C6338.92,10804.3 6338.37,10804.2 6337.84,10804.2L6337.44,10804.2C6336.01,10804.2 6334.75,10804.5 6333.67,10805C6331.66,10806 6330.52,10807.5 6330.18,10809.5C6330.18,10809.5 6328.69,10818.2 6328.69,10818.2C6328.32,10820.3 6328.92,10822.2 6330.51,10823.7C6331.77,10825 6333.52,10825.8 6335.8,10826.2L6368.99,10831.6C6366.49,10835.7 6363.09,10838.7 6358.79,10840.7C6354.25,10842.7 6349.11,10843.8 6343.38,10843.8C6334.87,10843.8 6327.95,10841.5 6322.68,10837C6317.43,10832.4 6314.78,10824.9 6314.39,10814.5C6314.04,10804.4 6314.04,10794.3 6314.39,10784.3C6314.78,10774 6317.4,10766.5 6322.61,10762.1C6327.84,10757.6 6334.74,10755.4 6343.25,10755.4C6349.03,10755.4 6353.81,10756.2 6357.56,10758C6361.22,10759.7 6364.14,10761.8 6366.3,10764.3C6368.46,10766.9 6370.02,10769.5 6370.96,10772.2C6370.98,10772.2 6371,10772.3 6371.03,10772.4C6371.71,10773.9 6372.47,10775 6373.2,10775.7C6374.12,10776.5 6375.51,10777.1 6377.46,10777.1L6387.85,10777.1C6389.75,10777.1 6391.27,10776.5 6392.45,10775.4C6393.79,10774.2 6394.42,10772.7 6394.26,10770.8C6394.12,10767.5 6393.02,10763.9 6390.86,10759.7C6388.77,10755.7 6385.65,10751.9 6381.44,10748.1C6377.29,10744.5 6372.04,10741.4 6365.66,10739C6359.37,10736.6 6351.9,10735.4 6343.25,10735.4C6332.56,10735.4 6323.42,10737.4 6315.84,10741.3C6308.1,10745.3 6302.2,10750.9 6298.12,10758.1C6294.1,10765.2 6291.87,10773.6 6291.48,10783.3C6291.47,10783.3 6291.47,10783.3 6291.47,10783.3C6291.36,10788.4 6291.3,10793.8 6291.3,10799.5C6291.3,10805.1 6291.36,10810.5 6291.47,10815.5C6291.47,10815.6 6291.47,10815.6 6291.48,10815.6C6291.87,10825.2 6294.09,10833.7 6298.09,10840.9C6302.17,10848.2 6308.03,10853.8 6315.69,10857.8C6323.2,10861.7 6332.38,10863.7 6343.25,10863.7C6354.11,10863.7 6363.42,10861.7 6371.2,10857.7C6379.13,10853.6 6385.19,10847.9 6389.41,10840.5C6390.35,10838.8 6391.18,10837.1 6391.92,10835.4Z" style="fill:white;fill-rule:nonzero;"/>
            </g>
            <g transform="matrix(1.1756,0,0,1.64042,-7052.08,-16784.1)">
                <path d="M6566.44,10855.4L6566.44,10743.9C6566.44,10741.8 6565.74,10740.2 6564.51,10739C6563.29,10737.8 6561.67,10737.1 6559.57,10737.1C6559.57,10737.1 6550.57,10737.1 6550.57,10737.1C6548.6,10737.1 6547.02,10737.8 6545.78,10739C6544.55,10740.2 6543.85,10741.8 6543.85,10743.9L6543.85,10855.4C6543.85,10857.4 6544.54,10859 6545.8,10860.2C6547.03,10861.4 6548.61,10862 6550.57,10862C6550.57,10862 6559.57,10862 6559.57,10862C6561.67,10862 6563.29,10861.3 6564.51,10860.2C6565.77,10858.9 6566.44,10857.4 6566.44,10855.4ZM6563.73,10800.1C6563.73,10800.1 6564.2,10800.1 6564.2,10800.1L6563.73,10800.1Z" style="fill:white;fill-rule:nonzero;"/>
            </g>
        </g>
    </g>
</svg>
